<svg width="81" height="81" viewBox="0 0 81 81" fill="none" xmlns="http://www.w3.org/2000/svg">
<path d="M50.4047 62.6301C49.9447 62.6301 49.4914 62.6301 49.0714 62.59C45.0714 62.3567 42.2714 61.1834 39.5314 60.0501C36.7914 58.9167 34.3847 57.9167 30.8647 57.6701C26.8625 57.4386 22.8653 58.2037 19.2314 59.8967C18.9211 60.0346 18.5687 60.0436 18.2518 59.9217C17.9348 59.7998 17.6793 59.557 17.5414 59.2467C17.4035 58.9364 17.3945 58.584 17.5164 58.2671C17.6383 57.9502 17.8811 57.6946 18.1914 57.5567C22.2067 55.6887 26.6241 54.8501 31.0447 55.1167C34.998 55.3901 37.8114 56.5567 40.5314 57.6834C43.2514 58.8101 45.6514 59.8234 49.1847 60.0034C53.2019 60.1824 57.1985 59.3359 60.798 57.5434C61.1048 57.3975 61.457 57.3795 61.777 57.4933C62.0971 57.607 62.3588 57.8433 62.5047 58.1501C62.6506 58.4568 62.6686 58.809 62.5548 59.129C62.4411 59.4491 62.2048 59.7108 61.898 59.8567C58.3227 61.6295 54.3951 62.5773 50.4047 62.6301Z" fill="#A7F271"/>
<path d="M50.4048 55.0967C49.9448 55.0967 49.4914 55.0967 49.0714 55.0501C45.0714 54.8167 42.2715 53.6501 39.5315 52.5167C36.7915 51.3834 34.3848 50.3834 30.8648 50.1367C26.863 49.9023 22.8657 50.6651 19.2315 52.3567C19.0769 52.4285 18.9098 52.4692 18.7395 52.4763C18.5693 52.4835 18.3993 52.4571 18.2393 52.3986C18.0793 52.3401 17.9323 52.2507 17.8069 52.1354C17.6814 52.0201 17.5799 51.8812 17.5081 51.7267C17.4363 51.5722 17.3957 51.405 17.3885 51.2348C17.3813 51.0646 17.4077 50.8946 17.4662 50.7346C17.5247 50.5745 17.6142 50.4276 17.7294 50.3022C17.8447 50.1767 17.9836 50.0752 18.1381 50.0034C22.1542 48.1371 26.5706 47.2964 30.9915 47.5567C34.9448 47.8367 37.7581 49.0034 40.4781 50.1301C43.1981 51.2567 45.6515 52.2701 49.1848 52.4767C53.2031 52.6511 57.1996 51.7999 60.7981 50.0034C61.1017 49.8836 61.4394 49.8837 61.743 50.0035C62.0465 50.1234 62.2931 50.3542 62.4329 50.649C62.5728 50.9439 62.5953 51.2809 62.496 51.5918C62.3967 51.9026 62.183 52.1642 61.8981 52.3234C58.3216 54.093 54.3947 55.0405 50.4048 55.0967Z" fill="#A7F271"/>
<path d="M50.4047 47.5567C49.9447 47.5567 49.4914 47.5567 49.0714 47.5167C45.0714 47.2834 42.2714 46.11 39.5314 44.9767C36.7914 43.8434 34.3847 42.85 30.8647 42.5967C26.8625 42.3652 22.8653 43.1303 19.2314 44.8234C19.0777 44.8917 18.9121 44.929 18.7441 44.9333C18.576 44.9376 18.4087 44.9087 18.2518 44.8484C18.0948 44.788 17.9513 44.6973 17.8294 44.5815C17.7076 44.4657 17.6097 44.327 17.5414 44.1734C17.4731 44.0197 17.4357 43.8541 17.4314 43.6861C17.4272 43.518 17.456 43.3507 17.5164 43.1938C17.5767 43.0368 17.6674 42.8933 17.7832 42.7714C17.899 42.6495 18.0377 42.5517 18.1914 42.4834C22.2081 40.6196 26.6244 39.7813 31.0447 40.0434C34.9981 40.3234 37.8114 41.4834 40.5314 42.61C43.2514 43.7367 45.7047 44.75 49.238 44.9634C53.2557 45.1398 57.2522 44.2909 60.8514 42.4967C61.0033 42.4245 61.1679 42.3829 61.3359 42.3743C61.5039 42.3657 61.6719 42.3902 61.8304 42.4466C61.9888 42.5029 62.1347 42.5899 62.2595 42.7026C62.3844 42.8153 62.4858 42.9515 62.5581 43.1034C62.6303 43.2553 62.6719 43.4199 62.6805 43.5879C62.6891 43.7558 62.6645 43.9239 62.6082 44.0824C62.5518 44.2408 62.4648 44.3867 62.3522 44.5115C62.2395 44.6364 62.1033 44.7378 61.9514 44.81C58.3577 46.5814 54.4111 47.5202 50.4047 47.5567Z" fill="#A7F271"/>
<path d="M50.4047 40.0034C49.9447 40.0034 49.4914 40.0034 49.0714 39.9634C45.0714 39.73 42.2714 38.5567 39.5314 37.4234C36.7914 36.29 34.3847 35.29 30.8647 35.0434C26.8625 34.8119 22.8653 35.577 19.2314 37.27C18.9211 37.408 18.5687 37.417 18.2518 37.2951C17.9348 37.1732 17.6793 36.9303 17.5414 36.62C17.4035 36.3097 17.3945 35.9574 17.5164 35.6404C17.6383 35.3235 17.8811 35.068 18.1914 34.93C22.2067 33.062 26.6241 32.2235 31.0447 32.49C34.9981 32.7634 37.8114 33.93 40.5314 35.0567C43.2514 36.1834 45.7047 37.1967 49.238 37.4034C53.2555 37.5857 57.2529 36.7389 60.8514 34.9434C61.1581 34.7975 61.5103 34.7795 61.8304 34.8932C62.1504 35.007 62.4122 35.2433 62.5581 35.55C62.7039 35.8568 62.722 36.209 62.6082 36.529C62.4944 36.8491 62.2581 37.1108 61.9514 37.2567C58.3577 39.0281 54.4111 39.9669 50.4047 40.0034Z" fill="#A7F271"/>
<path d="M50.4047 32.4901C49.9447 32.4901 49.4914 32.4901 49.0714 32.4501C45.0714 32.2167 42.2714 31.0434 39.5314 29.9101C36.7914 28.7767 34.3847 27.7767 30.8647 27.5301C26.8623 27.2955 22.8643 28.0607 19.2314 29.7567C19.0777 29.825 18.9121 29.8624 18.7441 29.8667C18.576 29.8709 18.4087 29.8421 18.2518 29.7817C18.0948 29.7214 17.9513 29.6307 17.8294 29.5149C17.7076 29.3991 17.6097 29.2604 17.5414 29.1067C17.4731 28.9531 17.4357 28.7875 17.4314 28.6194C17.4272 28.4513 17.456 28.284 17.5164 28.1271C17.5767 27.9702 17.6674 27.8267 17.7832 27.7048C17.899 27.5829 18.0377 27.485 18.1914 27.4167C22.2076 25.551 26.6239 24.7103 31.0447 24.9701C34.9981 25.2501 37.8114 26.4167 40.5314 27.5434C43.2514 28.6701 45.7047 29.6834 49.238 29.8901C53.2552 30.0691 57.2518 29.2225 60.8514 27.4301C61.1581 27.2842 61.5103 27.2662 61.8304 27.3799C62.1504 27.4937 62.4122 27.73 62.5581 28.0367C62.7039 28.3435 62.722 28.6956 62.6082 29.0157C62.4944 29.3358 62.2581 29.5975 61.9514 29.7434C58.3565 31.5115 54.4107 32.4501 50.4047 32.4901Z" fill="#A7F271"/>
<path d="M50.4047 24.95C49.9447 24.95 49.4914 24.95 49.0714 24.91C45.0714 24.6767 42.2714 23.5034 39.5314 22.37C36.7914 21.2367 34.3847 20.2434 30.8647 19.99C26.8624 19.758 22.8651 20.5231 19.2314 22.2167C18.9211 22.3546 18.5687 22.3636 18.2518 22.2417C17.9348 22.1198 17.6793 21.877 17.5414 21.5667C17.4035 21.2564 17.3945 20.904 17.5164 20.5871C17.6383 20.2702 17.8811 20.0146 18.1914 19.8767C22.208 18.0124 26.6244 17.1741 31.0447 17.4367C34.9981 17.7167 37.8114 18.8834 40.5314 20.0034C43.2514 21.1234 45.7047 22.15 49.238 22.3567C53.2557 22.5331 57.2522 21.6843 60.8514 19.89C61.0033 19.8178 61.1679 19.7762 61.3359 19.7676C61.5039 19.759 61.6719 19.7836 61.8304 19.8399C61.9888 19.8962 62.1347 19.9832 62.2595 20.0959C62.3844 20.2086 62.4858 20.3448 62.5581 20.4967C62.6303 20.6486 62.6719 20.8132 62.6805 20.9812C62.6891 21.1492 62.6645 21.3172 62.6082 21.4757C62.5518 21.6342 62.4648 21.78 62.3522 21.9049C62.2395 22.0297 62.1033 22.1311 61.9514 22.2034C58.3577 23.9747 54.4111 24.9135 50.4047 24.95Z" fill="#A7F271"/>
<path d="M40.0048 80.0034C32.0929 80.0043 24.3583 77.6589 17.7795 73.2637C11.2006 68.8685 6.073 62.621 3.0451 55.3114C0.017205 48.0017 -0.774936 39.9583 0.768869 32.1985C2.31267 24.4386 6.12308 17.3108 11.7181 11.7167C19.2202 4.21463 29.3952 -7.90474e-08 40.0048 0C50.6144 7.90474e-08 60.7894 4.21463 68.2915 11.7167C75.7936 19.2188 80.0082 29.3938 80.0082 40.0034C80.0082 50.6129 75.7936 60.788 68.2915 68.2901C64.5848 72.0152 60.1763 74.9685 55.321 76.979C50.4657 78.9896 45.2599 80.0175 40.0048 80.0034ZM40.0048 2.56339C32.6001 2.56368 25.3617 4.75966 19.205 8.87364C13.0483 12.9876 8.24979 18.8348 5.41616 25.6759C2.58254 32.517 1.84111 40.0447 3.28562 47.3072C4.73012 54.5696 8.2957 61.2407 13.5315 66.4767C16.9985 69.9962 21.1278 72.7946 25.6814 74.7109C30.2349 76.6271 35.1227 77.6232 40.063 77.6417C45.0032 77.6602 49.8984 76.7008 54.4661 74.8188C59.0339 72.9368 63.1841 70.1693 66.6774 66.676C70.1708 63.1827 72.9382 59.0325 74.8202 54.4647C76.7022 49.8969 77.6616 45.0018 77.6431 40.0615C77.6246 35.1213 76.6285 30.2335 74.7123 25.6799C72.7961 21.1264 69.9976 16.9971 66.4781 13.5301C63.0098 10.0424 58.8842 7.27734 54.34 5.39491C49.7958 3.51247 44.9234 2.55006 40.0048 2.56339Z" fill="#A7F271"/>
</svg>
