<svg width="40" height="40" viewBox="0 0 40 40" fill="none" xmlns="http://www.w3.org/2000/svg">
<path d="M24.8366 6.97976C23.8846 6.80388 23.0102 7.41147 22.8289 8.34083C22.6477 9.27019 23.2571 10.1776 24.1833 10.3594C26.9719 10.9031 29.125 13.0616 29.6708 15.8597V15.8617C29.8261 16.6671 30.5352 17.2527 31.3518 17.2527C31.4614 17.2527 31.5709 17.2427 31.6825 17.2227C32.6087 17.0369 33.2182 16.1315 33.0369 15.2001C32.2223 11.021 29.0055 7.7932 24.8366 6.97976Z" fill="#58BE00"/>
<path d="M24.7122 0.0158595C24.266 -0.0480965 23.8179 0.0838129 23.4613 0.367618C23.0948 0.65542 22.8658 1.07113 22.816 1.53682C22.7104 2.47817 23.3896 3.32958 24.3298 3.43551C30.8131 4.15901 35.8523 9.20955 36.5813 15.7131C36.6789 16.5845 37.4099 17.242 38.2823 17.242C38.3481 17.242 38.4118 17.238 38.4775 17.23C38.9337 17.1801 39.34 16.9542 39.6268 16.5945C39.9116 16.2347 40.0411 15.787 39.9893 15.3293C39.0811 7.21492 32.8009 0.91724 24.7122 0.0158595Z" fill="#58BE00"/>
<path fill-rule="evenodd" clip-rule="evenodd" d="M18.0635 21.9448C26.0416 29.9207 27.8515 20.6934 32.9313 25.7696C37.8286 30.6655 40.6432 31.6464 34.4385 37.8494C33.6613 38.474 28.7232 45.9885 11.3692 28.6393C-5.98696 11.288 1.52317 6.34489 2.14794 5.5679C8.36773 -0.652308 9.33173 2.17877 14.229 7.07466C19.3087 12.153 10.0853 13.9688 18.0635 21.9448Z" fill="#58BE00"/>
</svg>
