<svg width="61" height="55" viewBox="0 0 61 55" fill="none" xmlns="http://www.w3.org/2000/svg">
<path d="M59.2736 10H1.72642C1.26854 10 0.829421 10.2107 0.505655 10.5858C0.18189 10.9609 0 11.4696 0 12C0 12.5304 0.18189 13.0391 0.505655 13.4142C0.829421 13.7893 1.26854 14 1.72642 14H59.2736C59.7315 14 60.1706 13.7893 60.4943 13.4142C60.8181 13.0391 61 12.5304 61 12C61 11.4696 60.8181 10.9609 60.4943 10.5858C60.1706 10.2107 59.7315 10 59.2736 10Z" fill="#58BE00"/>
<path d="M59.3833 21H1.61671C1.17753 21.0273 0.766639 21.1973 0.466692 21.4755C0.166746 21.7538 0 22.1199 0 22.5C0 22.8801 0.166746 23.2462 0.466692 23.5245C0.766639 23.8027 1.17753 23.9727 1.61671 24H59.3833C59.8225 23.9727 60.2334 23.8027 60.5333 23.5245C60.8333 23.2462 61 22.8801 61 22.5C61 22.1199 60.8333 21.7538 60.5333 21.4755C60.2334 21.1973 59.8225 21.0273 59.3833 21Z" fill="#58BE00"/>
<path d="M59.2736 31H1.72642C1.26854 31 0.829421 31.158 0.505655 31.4393C0.18189 31.7206 0 32.1022 0 32.5C0 32.8978 0.18189 33.2794 0.505655 33.5607C0.829421 33.842 1.26854 34 1.72642 34H59.2736C59.7315 34 60.1706 33.842 60.4943 33.5607C60.8181 33.2794 61 32.8978 61 32.5C61 32.1022 60.8181 31.7206 60.4943 31.4393C60.1706 31.158 59.7315 31 59.2736 31Z" fill="#58BE00"/>
<path d="M59.2736 41H1.72642C1.26854 41 0.829421 41.2107 0.505655 41.5858C0.18189 41.9609 0 42.4696 0 43C0 43.5304 0.18189 44.0391 0.505655 44.4142C0.829421 44.7893 1.26854 45 1.72642 45H59.2736C59.7315 45 60.1706 44.7893 60.4943 44.4142C60.8181 44.0391 61 43.5304 61 43C61 42.4696 60.8181 41.9609 60.4943 41.5858C60.1706 41.2107 59.7315 41 59.2736 41Z" fill="#58BE00"/>
<path d="M1.72642 3H59.2736C59.7315 3 60.1706 2.84196 60.4943 2.56066C60.8181 2.27936 61 1.89782 61 1.5C61 1.10217 60.8181 0.720644 60.4943 0.43934C60.1706 0.158035 59.7315 1.67671e-08 59.2736 0H1.72642C1.4997 -8.3022e-09 1.2752 0.0387996 1.06574 0.114182C0.856286 0.189564 0.665968 0.300052 0.505655 0.43934C0.345343 0.578627 0.218175 0.743986 0.131415 0.925974C0.0446544 1.10796 0 1.30302 0 1.5C0 1.69698 0.0446544 1.89204 0.131415 2.07402C0.218175 2.25601 0.345343 2.42137 0.505655 2.56066C0.665968 2.69995 0.856286 2.81044 1.06574 2.88582C1.2752 2.9612 1.4997 3 1.72642 3Z" fill="#58BE00"/>
<path d="M59.2736 52H1.72642C1.26854 52 0.829421 52.158 0.505655 52.4393C0.18189 52.7206 0 53.1022 0 53.5C0 53.8978 0.18189 54.2794 0.505655 54.5607C0.829421 54.842 1.26854 55 1.72642 55H59.2736C59.7315 55 60.1706 54.842 60.4943 54.5607C60.8181 54.2794 61 53.8978 61 53.5C61 53.1022 60.8181 52.7206 60.4943 52.4393C60.1706 52.158 59.7315 52 59.2736 52Z" fill="#58BE00"/>
</svg>
