<svg width="80" height="80" viewBox="0 0 80 80" fill="none" xmlns="http://www.w3.org/2000/svg">
<g clip-path="url(#clip0)">
<path d="M61.3333 27.6867H18.6667C18.3272 27.6867 18.0016 27.8215 17.7616 28.0616C17.5215 28.3016 17.3867 28.6272 17.3867 28.9667C17.3867 29.3062 17.5215 29.6317 17.7616 29.8718C18.0016 30.1118 18.3272 30.2467 18.6667 30.2467H61.3333C61.6728 30.2467 61.9984 30.1118 62.2384 29.8718C62.4785 29.6317 62.6133 29.3062 62.6133 28.9667C62.6133 28.6272 62.4785 28.3016 62.2384 28.0616C61.9984 27.8215 61.6728 27.6867 61.3333 27.6867Z" fill="#FFED69"/>
<path d="M61.3333 35.3333H18.6667C18.3423 35.3567 18.0388 35.5021 17.8173 35.7402C17.5957 35.9783 17.4725 36.2915 17.4725 36.6167C17.4725 36.9419 17.5957 37.2551 17.8173 37.4932C18.0388 37.7313 18.3423 37.8766 18.6667 37.9H61.3333C61.6577 37.8766 61.9612 37.7313 62.1827 37.4932C62.4043 37.2551 62.5274 36.9419 62.5274 36.6167C62.5274 36.2915 62.4043 35.9783 62.1827 35.7402C61.9612 35.5021 61.6577 35.3567 61.3333 35.3333Z" fill="#FFED69"/>
<path d="M61.3333 42.9867H18.6667C18.3272 42.9867 18.0016 43.1216 17.7616 43.3616C17.5215 43.6016 17.3867 43.9272 17.3867 44.2667C17.3867 44.6062 17.5215 44.9317 17.7616 45.1718C18.0016 45.4118 18.3272 45.5467 18.6667 45.5467H61.3333C61.6728 45.5467 61.9984 45.4118 62.2384 45.1718C62.4785 44.9317 62.6133 44.6062 62.6133 44.2667C62.6133 43.9272 62.4785 43.6016 62.2384 43.3616C61.9984 43.1216 61.6728 42.9867 61.3333 42.9867Z" fill="#FFED69"/>
<path d="M61.3333 50.6667H18.6667C18.3272 50.6667 18.0016 50.8015 17.7616 51.0416C17.5215 51.2816 17.3867 51.6072 17.3867 51.9467C17.3867 52.2862 17.5215 52.6117 17.7616 52.8518C18.0016 53.0918 18.3272 53.2267 18.6667 53.2267H61.3333C61.6728 53.2267 61.9984 53.0918 62.2384 52.8518C62.4785 52.6117 62.6133 52.2862 62.6133 51.9467C62.6133 51.6072 62.4785 51.2816 62.2384 51.0416C61.9984 50.8015 61.6728 50.6667 61.3333 50.6667Z" fill="#FFED69"/>
<path d="M18.6667 22.56H61.3333C61.6728 22.56 61.9984 22.4251 62.2384 22.1851C62.4785 21.9451 62.6133 21.6195 62.6133 21.28C62.6133 20.9405 62.4785 20.615 62.2384 20.3749C61.9984 20.1349 61.6728 20 61.3333 20H18.6667C18.4986 20 18.3321 20.0331 18.1768 20.0974C18.0215 20.1618 17.8804 20.256 17.7616 20.3749C17.6427 20.4938 17.5484 20.6349 17.4841 20.7902C17.4198 20.9455 17.3867 21.1119 17.3867 21.28C17.3867 21.4481 17.4198 21.6145 17.4841 21.7698C17.5484 21.9251 17.6427 22.0662 17.7616 22.1851C17.8804 22.304 18.0215 22.3982 18.1768 22.4626C18.3321 22.5269 18.4986 22.56 18.6667 22.56Z" fill="#FFED69"/>
<path d="M61.3333 58.3533H18.6667C18.3272 58.3533 18.0016 58.4882 17.7616 58.7282C17.5215 58.9683 17.3867 59.2939 17.3867 59.6333C17.3867 59.9728 17.5215 60.2984 17.7616 60.5384C18.0016 60.7785 18.3272 60.9133 18.6667 60.9133H61.3333C61.6728 60.9133 61.9984 60.7785 62.2384 60.5384C62.4785 60.2984 62.6133 59.9728 62.6133 59.6333C62.6133 59.2939 62.4785 58.9683 62.2384 58.7282C61.9984 58.4882 61.6728 58.3533 61.3333 58.3533Z" fill="#FFED69"/>
<path d="M39.9996 79.9997C32.0877 80.0007 24.3532 77.6553 17.7743 73.2601C11.1955 68.8649 6.06783 62.6174 3.03993 55.3077C0.0120325 47.9981 -0.780109 39.9547 0.763696 32.1948C2.3075 24.435 6.1179 17.3072 11.713 11.7131C19.2151 4.211 29.3901 -0.00363167 39.9996 -0.00363159C50.6092 -0.00363151 60.7842 4.211 68.2863 11.7131C75.7884 19.2152 80.003 29.3902 80.003 39.9998C80.003 50.6093 75.7884 60.7843 68.2863 68.2864C64.5796 72.0116 60.1711 74.9649 55.3158 76.9754C50.4605 78.986 45.2547 80.0139 39.9996 79.9997ZM39.9996 2.55976C32.5949 2.56005 25.3566 4.75603 19.1999 8.87001C13.0432 12.984 8.24461 18.8312 5.41099 25.6723C2.57737 32.5134 1.83594 40.0411 3.28044 47.3035C4.72495 54.566 8.29053 61.237 13.5263 66.4731C16.9933 69.9925 21.1226 72.791 25.6762 74.7072C30.2297 76.6234 35.1175 77.6195 40.0578 77.638C44.9981 77.6566 49.8932 76.6972 54.461 74.8152C59.0288 72.9331 63.1789 70.1657 66.6723 66.6724C70.1656 63.179 72.933 59.0289 74.815 54.4611C76.6971 49.8933 77.6564 44.9982 77.6379 40.0579C77.6194 35.1176 76.6233 30.2299 74.7071 25.6763C72.7909 21.1227 69.9924 16.9935 66.473 13.5264C63.0046 10.0388 58.879 7.27371 54.3348 5.39128C49.7907 3.50884 44.9183 2.54643 39.9996 2.55976Z" fill="#FFED69"/>
</g>
<defs>
<clipPath id="clip0">
<rect width="80" height="80" fill="white"/>
</clipPath>
</defs>
</svg>
