<svg width="80" height="80" viewBox="0 0 80 80" fill="none" xmlns="http://www.w3.org/2000/svg">
<path d="M58.72 62.6267C58.5305 62.6268 58.3435 62.5834 58.1733 62.5C58.0208 62.4285 57.8839 62.3275 57.7707 62.2028C57.6574 62.0781 57.57 61.9321 57.5136 61.7734C57.4572 61.6146 57.4328 61.4463 57.4419 61.278C57.451 61.1098 57.4934 60.9451 57.5667 60.7933C59.3499 57.1914 60.1873 53.1949 60 49.18C59.7933 45.6467 58.7533 43.1333 57.6533 40.4733C56.5533 37.8133 55.36 34.94 55.0867 30.9867C54.8284 26.5638 55.6762 22.1464 57.5533 18.1333C57.6913 17.823 57.9468 17.5802 58.2637 17.4583C58.5807 17.3364 58.933 17.3454 59.2433 17.4833C59.5536 17.6213 59.7965 17.8768 59.9184 18.1937C60.0402 18.5107 60.0312 18.863 59.8933 19.1733C58.2003 22.8072 57.4352 26.8044 57.6667 30.8067C57.9133 34.3467 58.9533 36.8467 60.0467 39.4733C61.14 42.1 62.3533 45.0467 62.5867 49.0133C62.7908 53.4603 61.8593 57.8859 59.88 61.8733C59.7784 62.0963 59.6153 62.2857 59.4098 62.4191C59.2043 62.5526 58.965 62.6246 58.72 62.6267Z" fill="#FF5E48"/>
<path d="M51.1866 62.6267C50.9971 62.6275 50.8099 62.5841 50.64 62.5C50.4857 62.4302 50.3467 62.3306 50.231 62.207C50.1153 62.0833 50.0251 61.9381 49.9657 61.7795C49.9062 61.621 49.8786 61.4522 49.8845 61.283C49.8904 61.1138 49.9296 60.9474 50 60.7933C51.7942 57.1942 52.643 53.1977 52.4666 49.18C52.26 45.6467 51.22 43.1333 50.12 40.4733C49.02 37.8133 47.8266 34.94 47.5466 30.9867C47.289 26.5653 48.1319 22.149 50 18.1333C50.1513 17.8456 50.4065 17.6262 50.7136 17.5197C51.0208 17.4132 51.357 17.4276 51.6539 17.56C51.9509 17.6924 52.1864 17.9327 52.3125 18.2324C52.4387 18.532 52.4461 18.8684 52.3333 19.1733C50.6491 22.8095 49.8932 26.8066 50.1333 30.8067C50.38 34.3466 51.4133 36.8467 52.5133 39.4733C53.6133 42.1 54.82 45.0466 55.0466 49.0133C55.2634 53.4568 54.3457 57.8824 52.38 61.8733C52.2761 62.1015 52.1078 62.2944 51.8958 62.4282C51.6838 62.562 51.4373 62.631 51.1866 62.6267Z" fill="#FF5E48"/>
<path d="M43.6533 62.6267C43.4617 62.6269 43.2725 62.5835 43.1 62.5C42.948 62.4279 42.8118 62.3265 42.699 62.2016C42.5863 62.0768 42.4992 61.9309 42.4429 61.7724C42.3865 61.6139 42.362 61.4459 42.3707 61.2779C42.3793 61.1099 42.421 60.9452 42.4933 60.7933C44.2875 57.1942 45.1364 53.1977 44.96 49.18C44.7467 45.6467 43.7067 43.1333 42.6067 40.4733C41.5067 37.8133 40.32 34.94 40.04 30.9867C39.7779 26.5664 40.6163 22.1501 42.48 18.1333C42.6179 17.823 42.8734 17.5802 43.1904 17.4583C43.5073 17.3364 43.8597 17.3454 44.17 17.4833C44.4803 17.6213 44.7231 17.8768 44.845 18.1937C44.9669 18.5107 44.9579 18.863 44.82 19.1733C43.1269 22.8072 42.3619 26.8044 42.5933 30.8067C42.8467 34.3467 43.88 36.8467 44.9733 39.4733C46.0667 42.1 47.28 45.0467 47.5133 49.0133C47.7207 53.4605 46.789 57.887 44.8067 61.8733C44.7056 62.0953 44.5435 62.284 44.3393 62.4174C44.1351 62.5507 43.8972 62.6233 43.6533 62.6267Z" fill="#FF5E48"/>
<path d="M36.1133 62.6267C35.9239 62.6261 35.7371 62.5828 35.5667 62.5C35.4141 62.4286 35.2772 62.3275 35.164 62.2028C35.0507 62.0781 34.9634 61.9321 34.9069 61.7734C34.8505 61.6146 34.8262 61.4463 34.8353 61.278C34.8444 61.1098 34.8868 60.9451 34.96 60.7933C36.7556 57.1949 37.6023 53.1974 37.42 49.18C37.2133 45.6467 36.1733 43.1333 35.0733 40.4733C33.9733 37.8133 32.78 34.94 32.5067 30.9867C32.2401 26.5661 33.0787 22.1487 34.9467 18.1333C35.0846 17.823 35.3401 17.5802 35.6571 17.4583C35.974 17.3364 36.3264 17.3454 36.6367 17.4833C36.947 17.6213 37.1898 17.8768 37.3117 18.1937C37.4336 18.5107 37.4246 18.863 37.2867 19.1733C35.5936 22.8072 34.8285 26.8044 35.06 30.8067C35.3067 34.3467 36.3467 36.8467 37.44 39.4733C38.5333 42.1 39.7467 45.0667 40 49.0333C40.2047 53.4803 39.2732 57.9061 37.2933 61.8933C37.1875 62.1157 37.02 62.303 36.8108 62.433C36.6017 62.563 36.3596 62.6302 36.1133 62.6267Z" fill="#FF5E48"/>
<path d="M28.58 62.6267C28.3904 62.6275 28.2032 62.5841 28.0333 62.5C27.8807 62.4286 27.7439 62.3275 27.6306 62.2028C27.5174 62.0781 27.43 61.9321 27.3736 61.7734C27.3171 61.6146 27.2928 61.4463 27.3019 61.278C27.311 61.1098 27.3534 60.9451 27.4266 60.7933C29.2191 57.1938 30.0657 53.1972 29.8866 49.18C29.68 45.6467 28.64 43.1333 27.54 40.4733C26.44 37.8133 25.2466 34.94 24.9666 30.9867C24.7069 26.5658 25.5475 22.1496 27.4133 18.1333C27.5512 17.823 27.8067 17.5802 28.1237 17.4583C28.4406 17.3364 28.793 17.3454 29.1033 17.4833C29.4136 17.6213 29.6564 17.8768 29.7783 18.1937C29.9002 18.5107 29.8912 18.863 29.7533 19.1733C28.0573 22.8063 27.2921 26.8042 27.5266 30.8067C27.7733 34.3467 28.8066 36.8467 29.9066 39.4733C31.0066 42.1 32.2133 45.0467 32.4466 49.0133C32.6475 53.46 31.7162 57.8849 29.74 61.8733C29.6384 62.0963 29.4753 62.2857 29.2698 62.4191C29.0643 62.5526 28.825 62.6246 28.58 62.6267Z" fill="#FF5E48"/>
<path d="M21.0467 62.6267C20.855 62.6269 20.6658 62.5835 20.4933 62.5C20.1877 62.3529 19.9524 62.0911 19.8388 61.7715C19.7252 61.4519 19.7424 61.1003 19.8867 60.7933C21.6809 57.1942 22.5297 53.1977 22.3533 49.18C22.1467 45.6467 21.1067 43.1333 20 40.4733C18.8933 37.8133 17.7133 34.94 17.4333 30.9867C17.1712 26.5664 18.0096 22.1501 19.8733 18.1333C19.9416 17.9797 20.0395 17.841 20.1614 17.7252C20.2833 17.6094 20.4268 17.5187 20.5837 17.4583C20.7406 17.398 20.9079 17.3691 21.076 17.3734C21.2441 17.3777 21.4097 17.4151 21.5633 17.4833C21.717 17.5516 21.8557 17.6495 21.9715 17.7714C22.0873 17.8933 22.178 18.0368 22.2383 18.1937C22.2987 18.3506 22.3276 18.5179 22.3233 18.686C22.319 18.8541 22.2816 19.0197 22.2133 19.1733C20.5249 22.8084 19.7644 26.8055 20 30.8067C20.2533 34.3467 21.2867 36.8467 22.38 39.4733C23.4733 42.1 24.6667 45.0667 24.9067 49.0333C25.114 53.4805 24.1823 57.907 22.2 61.8933C22.0967 62.1121 21.9335 62.297 21.7294 62.4268C21.5253 62.5566 21.2885 62.6259 21.0467 62.6267Z" fill="#FF5E48"/>
<path d="M40 80C32.088 80.001 24.3535 77.6555 17.7747 73.2603C11.1958 68.8651 6.06818 62.6176 3.04028 55.308C0.0123835 47.9983 -0.779758 39.9549 0.764047 32.1951C2.30785 24.4352 6.11825 17.3075 11.7133 11.7133C19.2154 4.21124 29.3904 -0.00338753 40 -0.00338745C50.6095 -0.00338737 60.7846 4.21124 68.2867 11.7133C75.7887 19.2154 80.0034 29.3904 80.0034 40C80.0034 50.6096 75.7887 60.7846 68.2867 68.2867C64.58 72.0118 60.1715 74.9651 55.3162 76.9757C50.4609 78.9862 45.2551 80.0141 40 80ZM40 2.56C32.5953 2.56029 25.3569 4.75627 19.2002 8.87025C13.0435 12.9842 8.24496 18.8315 5.41134 25.6725C2.57772 32.5136 1.83629 40.0413 3.28079 47.3038C4.7253 54.5662 8.29088 61.2373 13.5267 66.4733C16.9937 69.9928 21.123 72.7912 25.6765 74.7075C30.2301 76.6237 35.1179 77.6198 40.0581 77.6383C44.9984 77.6568 49.8935 76.6974 54.4613 74.8154C59.0291 72.9334 63.1793 70.166 66.6726 66.6726C70.1659 63.1793 72.9334 59.0291 74.8154 54.4613C76.6974 49.8935 77.6568 44.9984 77.6383 40.0582C77.6197 35.1179 76.6237 30.2301 74.7075 25.6765C72.7912 21.123 69.9928 16.9937 66.4733 13.5267C63.005 10.039 58.8793 7.27396 54.3352 5.39152C49.791 3.50909 44.9186 2.54668 40 2.56Z" fill="#FF5E48"/>
</svg>
