<svg width="118" height="28" viewBox="0 0 118 28" fill="none" xmlns="http://www.w3.org/2000/svg">
<path d="M35.2909 5.1782H32.7275V11.9127H32.2105V5.1782H29.6472V4.70547H35.2909V5.1782Z" fill="white"/>
<path d="M44.6324 11.44V11.9127H39.7211V4.70547H44.4816V5.1782H40.2452V8.02184H44.0364V8.48729H40.2452V11.44H44.6324Z" fill="white"/>
<path d="M55.2017 11.9127H54.6847V8.48H49.9242V11.9055H49.4072V4.69818H49.9242V8.01454H54.6847V4.69818H55.2017V11.9127Z" fill="white"/>
<path d="M67.0132 11.44V13.5637H66.5177V11.9127H60.0124L60.0052 13.5637H59.5098L59.517 11.44H59.9047C60.3714 11.3964 60.7017 11.0037 60.8884 10.2473C61.0751 9.49093 61.19 8.43638 61.2259 7.07638L61.2977 4.70547H65.9218V11.44H67.0132ZM61.4269 9.9782C61.2905 10.72 61.0536 11.2073 60.7233 11.44H65.3976V5.1782H61.7572L61.6998 7.11275C61.6567 8.28365 61.5705 9.23638 61.4269 9.9782Z" fill="white"/>
<path d="M76.6275 11.44V11.9127H71.7234V4.70547H76.4839V5.1782H72.2476V8.02184H76.0387V8.48729H72.2476V11.44H76.6275Z" fill="white"/>
<path d="M86.0623 5.34545C86.5721 5.77454 86.8234 6.37091 86.8234 7.13454C86.8234 7.89091 86.5721 8.48 86.0623 8.90909C85.5525 9.33818 84.856 9.54909 83.9585 9.54909H81.9265V11.9055H81.4095V4.69818H83.9585C84.856 4.70545 85.5525 4.91636 86.0623 5.34545ZM85.6961 8.57454C86.0982 8.24 86.2993 7.76 86.2993 7.13454C86.2993 6.50909 86.0982 6.02909 85.6961 5.68727C85.294 5.34545 84.7196 5.17818 83.9585 5.17818H81.9265V9.08363H83.9585C84.7196 9.08363 85.294 8.90909 85.6961 8.57454Z" fill="white"/>
<path d="M97.3281 11.9127H96.8111V8.48H92.0506V11.9055H91.5337V4.69818H92.0506V8.01454H96.8111V4.69818H97.3281V11.9127Z" fill="white"/>
<path d="M107.438 9.88365H103.309L102.405 11.9127H101.844L105.119 4.70547H105.636L108.91 11.9127H108.35L107.438 9.88365ZM107.244 9.44002L105.377 5.28002L103.517 9.44002H107.244Z" fill="white"/>
<path d="M118 11.9127H117.483V9.64363H115.214C115.035 9.64363 114.869 9.63636 114.719 9.61454L113.146 11.9127H112.586L114.23 9.52727C113.699 9.37454 113.297 9.10545 113.01 8.70545C112.723 8.31273 112.586 7.81818 112.586 7.21454C112.586 6.42182 112.83 5.80363 113.326 5.36C113.814 4.92363 114.482 4.69818 115.322 4.69818H118V11.9127ZM113.663 8.67636C114.029 9.01818 114.561 9.19273 115.272 9.19273H117.49V5.17818H115.365C114.647 5.17818 114.094 5.35273 113.706 5.69454C113.318 6.04363 113.125 6.54545 113.125 7.2C113.11 7.84727 113.297 8.33454 113.663 8.67636Z" fill="white"/>
<path d="M30.0206 18.0509H35.0898V18.5164H30.5376V21.1127H32.9501C33.783 21.1127 34.4149 21.2873 34.8529 21.6291C35.2837 21.9709 35.5063 22.48 35.5063 23.1418C35.5063 23.8255 35.2765 24.3564 34.817 24.72C34.3575 25.0836 33.6897 25.2655 32.8137 25.2655H30.0278V18.0509H30.0206ZM32.8137 24.8146C33.5245 24.8146 34.0631 24.6764 34.4293 24.4C34.7954 24.1236 34.975 23.7091 34.975 23.1564C34.975 22.08 34.2497 21.5418 32.8065 21.5418H30.5304V24.8146H32.8137Z" fill="white"/>
<path d="M40.4175 18.0509H40.9345V24.3709L45.7812 18.0509H46.2407V25.2582H45.7237V18.9455L40.8771 25.2582H40.4175V18.0509Z" fill="white"/>
<path d="M56.5085 18.6982C57.0183 19.1273 57.2696 19.7236 57.2696 20.4873C57.2696 21.2436 57.0183 21.8327 56.5085 22.2618C55.9987 22.6909 55.3022 22.9018 54.4047 22.9018H52.3727V25.2582H51.8557V18.0509H54.4047C55.3022 18.0509 55.9987 18.2691 56.5085 18.6982ZM56.1423 21.9273C56.5444 21.5927 56.7454 21.1127 56.7454 20.4873C56.7454 19.8618 56.5444 19.3818 56.1423 19.04C55.7402 18.6982 55.1658 18.5309 54.4047 18.5309H52.3727V22.4364H54.4047C55.1658 22.4291 55.7474 22.2618 56.1423 21.9273Z" fill="white"/>
<path d="M67.4296 21.84H65.8643V25.2582H65.3545V21.84H63.7892L61.4413 25.2582H60.8238L63.3656 21.5491L61.0177 18.0509H61.6064L63.7821 21.3673H65.3545V18.0509H65.8643V21.3673H67.4296L69.6124 18.0509H70.194L67.8532 21.5491L70.3951 25.2582H69.7776L67.4296 21.84Z" fill="white"/>
<path d="M79.1908 23.2291H75.0622L74.1575 25.2582H73.5974L76.8716 18.0509H77.3886L80.6628 25.2582H80.1027L79.1908 23.2291ZM78.997 22.7855L77.1301 18.6255L75.2704 22.7855H78.997Z" fill="white"/>
<path d="M12.9819 5.38909V26.1455L11.1078 28V5.38909H12.9819Z" fill="white"/>
<path d="M19.2143 4.80727V3.85454H2.04637V4.80727L0 2.27636H21.3971L19.2143 4.80727Z" fill="white"/>
<path d="M16.8305 0H4.45892L2.96543 1.29454H18.4029L16.8305 0Z" fill="white"/>
<path d="M10.2605 5.38909V27.9636L8.39368 26.0218V5.38909H10.2605Z" fill="white"/>
<path d="M14.2599 11.3454L13.6353 10.7127V14.8873L19.3435 8.98908V11.8691L13.6353 17.4036V25.3745L21.3899 17.3527V3.73817L14.2599 11.3454ZM19.3507 16.7345L15.1359 20.9527V18.3927L19.3507 14.0363V16.7345Z" fill="white"/>
<path d="M0 3.73817V17.3527L7.75465 25.3745V17.4036L2.04637 11.8691V8.98908L7.75465 14.8873V10.7127L7.12997 11.3454L0 3.73817ZM2.04637 14.0363L6.26117 18.3927V20.9527L2.04637 16.7345V14.0363Z" fill="white"/>
<path d="M12.9819 5.38909V26.1455L11.1078 28V5.38909H12.9819Z" fill="white"/>
<path d="M19.2143 4.80727V3.85454H2.04637V4.80727L0 2.27636H21.3971L19.2143 4.80727Z" fill="white"/>
<path d="M16.8305 0H4.45892L2.96543 1.29454H18.4029L16.8305 0Z" fill="white"/>
<path d="M10.2605 5.38909V27.9636L8.39368 26.0218V5.38909H10.2605Z" fill="white"/>
<path d="M14.2599 11.3454L13.6353 10.7127V14.8873L19.3435 8.98908V11.8691L13.6353 17.4036V25.3745L21.3899 17.3527V3.73817L14.2599 11.3454ZM19.3507 16.7345L15.1359 20.9527V18.3927L19.3507 14.0363V16.7345Z" fill="white"/>
<path d="M0 3.73817V17.3527L7.75465 25.3745V17.4036L2.04637 11.8691V8.98908L7.75465 14.8873V10.7127L7.12997 11.3454L0 3.73817ZM2.04637 14.0363L6.26117 18.3927V20.9527L2.04637 16.7345V14.0363Z" fill="white"/>
<path d="M12.9819 5.38909V26.1455L11.1078 28V5.38909H12.9819Z" fill="white"/>
<path d="M19.2143 4.80727V3.85454H2.04637V4.80727L0 2.27636H21.3971L19.2143 4.80727Z" fill="white"/>
<path d="M16.8305 0H4.45892L2.96543 1.29454H18.4029L16.8305 0Z" fill="white"/>
<path d="M10.2605 5.38909V27.9636L8.39368 26.0218V5.38909H10.2605Z" fill="white"/>
<path d="M14.2599 11.3454L13.6353 10.7127V14.8873L19.3435 8.98908V11.8691L13.6353 17.4036V25.3745L21.3899 17.3527V3.73817L14.2599 11.3454ZM19.3507 16.7345L15.1359 20.9527V18.3927L19.3507 14.0363V16.7345Z" fill="white"/>
<path d="M0 3.73817V17.3527L7.75465 25.3745V17.4036L2.04637 11.8691V8.98908L7.75465 14.8873V10.7127L7.12997 11.3454L0 3.73817ZM2.04637 14.0363L6.26117 18.3927V20.9527L2.04637 16.7345V14.0363Z" fill="white"/>
<path d="M12.9819 5.38909V26.1455L11.1078 28V5.38909H12.9819Z" fill="white"/>
<path d="M19.2143 4.80727V3.85454H2.04637V4.80727L0 2.27636H21.3971L19.2143 4.80727Z" fill="white"/>
<path d="M16.8305 0H4.45892L2.96543 1.29454H18.4029L16.8305 0Z" fill="white"/>
<path d="M10.2605 5.38909V27.9636L8.39368 26.0218V5.38909H10.2605Z" fill="white"/>
<path d="M14.2599 11.3454L13.6353 10.7127V14.8873L19.3435 8.98908V11.8691L13.6353 17.4036V25.3745L21.3899 17.3527V3.73817L14.2599 11.3454ZM19.3507 16.7345L15.1359 20.9527V18.3927L19.3507 14.0363V16.7345Z" fill="white"/>
<path d="M0 3.73817V17.3527L7.75465 25.3745V17.4036L2.04637 11.8691V8.98908L7.75465 14.8873V10.7127L7.12997 11.3454L0 3.73817ZM2.04637 14.0363L6.26117 18.3927V20.9527L2.04637 16.7345V14.0363Z" fill="white"/>
<path d="M12.9819 5.38909V26.1455L11.1078 28V5.38909H12.9819Z" fill="white"/>
<path d="M19.2143 4.80727V3.85454H2.04637V4.80727L0 2.27636H21.3971L19.2143 4.80727Z" fill="white"/>
<path d="M16.8305 0H4.45892L2.96543 1.29454H18.4029L16.8305 0Z" fill="white"/>
<path d="M10.2605 5.38909V27.9636L8.39368 26.0218V5.38909H10.2605Z" fill="white"/>
<path d="M14.2599 11.3454L13.6353 10.7127V14.8873L19.3435 8.98908V11.8691L13.6353 17.4036V25.3745L21.3899 17.3527V3.73817L14.2599 11.3454ZM19.3507 16.7345L15.1359 20.9527V18.3927L19.3507 14.0363V16.7345Z" fill="white"/>
<path d="M0 3.73817V17.3527L7.75465 25.3745V17.4036L2.04637 11.8691V8.98908L7.75465 14.8873V10.7127L7.12997 11.3454L0 3.73817ZM2.04637 14.0363L6.26117 18.3927V20.9527L2.04637 16.7345V14.0363Z" fill="white"/>
<path d="M12.9819 5.38909V26.1455L11.1078 28V5.38909H12.9819Z" fill="white"/>
<path d="M19.2143 4.80727V3.85454H2.04637V4.80727L0 2.27636H21.3971L19.2143 4.80727Z" fill="white"/>
<path d="M16.8305 0H4.45892L2.96543 1.29454H18.4029L16.8305 0Z" fill="white"/>
<path d="M10.2605 5.38909V27.9636L8.39368 26.0218V5.38909H10.2605Z" fill="white"/>
<path d="M14.2599 11.3454L13.6353 10.7127V14.8873L19.3435 8.98908V11.8691L13.6353 17.4036V25.3745L21.3899 17.3527V3.73817L14.2599 11.3454ZM19.3507 16.7345L15.1359 20.9527V18.3927L19.3507 14.0363V16.7345Z" fill="white"/>
<path d="M0 3.73817V17.3527L7.75465 25.3745V17.4036L2.04637 11.8691V8.98908L7.75465 14.8873V10.7127L7.12997 11.3454L0 3.73817ZM2.04637 14.0363L6.26117 18.3927V20.9527L2.04637 16.7345V14.0363Z" fill="white"/>
</svg>
