<svg width="80" height="80" viewBox="0 0 80 80" fill="none" xmlns="http://www.w3.org/2000/svg">
<g clip-path="url(#clip0)">
<path d="M29.2867 24.9466C25.4338 24.9124 21.6321 24.0603 18.1333 22.4466C17.823 22.3087 17.5802 22.0532 17.4583 21.7362C17.3364 21.4193 17.3454 21.0669 17.4833 20.7566C17.6213 20.4463 17.8768 20.2035 18.1937 20.0816C18.5107 19.9597 18.863 19.9687 19.1733 20.1066C22.8072 21.7997 26.8044 22.5647 30.8067 22.3333C34.3467 22.0866 36.8467 21.0466 39.4733 19.9533C42.1 18.8599 45.0467 17.6466 49.0133 17.4133C53.4603 17.2086 57.8861 18.1401 61.8733 20.1199C62.1801 20.2658 62.4164 20.5276 62.5301 20.8476C62.6439 21.1677 62.6259 21.5198 62.48 21.8266C62.3341 22.1334 62.0724 22.3696 61.7523 22.4834C61.4323 22.5972 61.0801 22.5791 60.7733 22.4333C57.1774 20.6533 53.1882 19.816 49.18 19.9999C45.6467 20.2066 43.1333 21.2466 40.4733 22.3466C37.8133 23.4466 34.94 24.6399 30.9867 24.9133C30.4222 24.9355 29.8556 24.9466 29.2867 24.9466Z" fill="#1265F5"/>
<path d="M29.2867 32.4867C25.4348 32.4563 21.6333 31.6087 18.1333 30C17.8456 29.8487 17.6262 29.5935 17.5198 29.2863C17.4133 28.9792 17.4277 28.643 17.56 28.346C17.6924 28.0491 17.9328 27.8136 18.2324 27.6874C18.532 27.5613 18.8684 27.5538 19.1733 27.6667C22.8095 29.3508 26.8066 30.1067 30.8067 29.8667C34.3467 29.62 36.8467 28.5867 39.4733 27.4867C42.1 26.3867 45.0467 25.1867 49.0133 24.9533C53.4606 24.7454 57.8872 25.6771 61.8733 27.66C62.1766 27.8008 62.4122 28.0552 62.5295 28.3683C62.6467 28.6814 62.6361 29.028 62.5 29.3333C62.3541 29.6402 62.0928 29.8769 61.7731 29.9918C61.4534 30.1067 61.1012 30.0905 60.7933 29.9467C57.1953 28.1494 53.198 27.3003 49.18 27.48C45.6467 27.6867 43.1333 28.7267 40.4733 29.8267C37.8133 30.9267 34.94 32.12 30.9867 32.4C30.4222 32.4578 29.8556 32.4867 29.2867 32.4867Z" fill="#1265F5"/>
<path d="M29.2867 40C25.4357 39.9683 21.6349 39.1231 18.1333 37.52C17.823 37.3821 17.5802 37.1265 17.4583 36.8096C17.3364 36.4927 17.3454 36.1403 17.4833 35.83C17.6213 35.5197 17.8768 35.2769 18.1937 35.155C18.5107 35.0331 18.863 35.0421 19.1733 35.18C22.8072 36.873 26.8044 37.6381 30.8067 37.4066C34.3467 37.1533 36.8467 36.12 39.4733 35.0266C42.1 33.9333 45.0467 32.72 49.0133 32.4866C53.4603 32.282 57.8861 33.2135 61.8733 35.1933C62.1801 35.3392 62.4164 35.6009 62.5301 35.921C62.6439 36.2411 62.6259 36.5932 62.48 36.9C62.3341 37.2067 62.0724 37.443 61.7523 37.5568C61.4323 37.6705 61.0801 37.6525 60.7733 37.5066C57.1742 35.7124 53.1777 34.8636 49.16 35.04C45.6267 35.2533 43.1133 36.2933 40.4533 37.3933C37.7933 38.4933 34.92 39.68 30.9667 39.96C30.4156 39.9866 29.8556 40 29.2867 40Z" fill="#1265F5"/>
<path d="M29.2867 47.5533C25.4343 47.5153 21.6334 46.6633 18.1333 45.0533C17.823 44.9154 17.5802 44.6598 17.4583 44.3429C17.3364 44.026 17.3454 43.6736 17.4833 43.3633C17.6213 43.053 17.8768 42.8102 18.1937 42.6883C18.5107 42.5664 18.863 42.5754 19.1733 42.7133C22.8072 44.4063 26.8044 45.1714 30.8067 44.9399C34.3467 44.6933 36.8467 43.6533 39.4733 42.5599C42.1 41.4666 45.0667 40.2533 49.0333 39.9999C53.4803 39.7953 57.9061 40.7268 61.8933 42.7066C62.2001 42.8525 62.4364 43.1142 62.5501 43.4343C62.6639 43.7544 62.6459 44.1065 62.5 44.4133C62.3541 44.72 62.0924 44.9563 61.7723 45.0701C61.4523 45.1838 61.1001 45.1658 60.7933 45.0199C57.1949 43.2244 53.1974 42.3776 49.18 42.5599C45.6467 42.7666 43.1333 43.8066 40.4733 44.9066C37.8133 46.0066 34.94 47.1999 30.9867 47.4733C30.4222 47.5266 29.8556 47.5533 29.2867 47.5533Z" fill="#1265F5"/>
<path d="M29.2866 55.0933C25.4333 55.0566 21.6317 54.2022 18.1333 52.5866C17.9691 52.5259 17.8191 52.4321 17.6926 52.311C17.5661 52.19 17.4658 52.0443 17.3978 51.8829C17.3299 51.7216 17.2957 51.548 17.2976 51.3729C17.2994 51.1978 17.3371 51.025 17.4084 50.8651C17.4796 50.7052 17.583 50.5616 17.712 50.4432C17.8409 50.3248 17.9928 50.2341 18.1583 50.1768C18.3237 50.1194 18.4991 50.0966 18.6737 50.1098C18.8483 50.123 19.0183 50.1718 19.1733 50.2533C22.8087 51.9411 26.8051 52.7038 30.8066 52.4733C34.3466 52.2266 36.8466 51.1933 39.4733 50.0933C42.1 48.9933 45.0466 47.7866 49.0133 47.5533C53.46 47.3519 57.885 48.2832 61.8733 50.26C62.1801 50.4058 62.4163 50.6676 62.5301 50.9876C62.6439 51.3077 62.6258 51.6599 62.48 51.9666C62.3341 52.2734 62.0723 52.5097 61.7523 52.6234C61.4322 52.7372 61.0801 52.7192 60.7733 52.5733C57.1726 50.7842 53.1768 49.9378 49.16 50.1133C45.6266 50.32 43.1133 51.36 40.4533 52.46C37.7933 53.56 34.92 54.7533 30.9666 55.0333C30.4155 55.0733 29.8555 55.0933 29.2866 55.0933Z" fill="#1265F5"/>
<path d="M29.2867 62.6266C25.4343 62.5886 21.6334 61.7367 18.1333 60.1266C17.823 59.9887 17.5802 59.7332 17.4583 59.4162C17.3364 59.0993 17.3454 58.7469 17.4833 58.4366C17.6213 58.1263 17.8768 57.8835 18.1937 57.7616C18.5107 57.6397 18.863 57.6487 19.1733 57.7866C22.8084 59.4751 26.8055 60.2356 30.8067 59.9999C34.3467 59.7466 36.8467 58.7133 39.4733 57.6199C42.1 56.5266 45.0667 55.3333 49.0333 55.0933C53.4806 54.8854 57.9072 55.817 61.8933 57.7999C62.2001 57.9458 62.4364 58.2076 62.5501 58.5276C62.6639 58.8477 62.6459 59.1998 62.5 59.5066C62.3541 59.8134 62.0924 60.0496 61.7723 60.1634C61.4523 60.2772 61.1001 60.2591 60.7933 60.1133C57.1942 58.3191 53.1977 57.4702 49.18 57.6466C45.6467 57.8533 43.1333 58.8933 40.4733 59.9999C37.8133 61.1066 34.94 62.2866 30.9867 62.5666C30.4222 62.6066 29.8556 62.6266 29.2867 62.6266Z" fill="#1265F5"/>
<path d="M40 80C32.088 80.0009 24.3535 77.6555 17.7747 73.2603C11.1958 68.8651 6.06818 62.6176 3.04028 55.308C0.0123835 47.9983 -0.779758 39.9549 0.764047 32.195C2.30785 24.4352 6.11825 17.3074 11.7133 11.7133C19.2154 4.21121 29.3904 -0.00341805 40 -0.00341797C50.6095 -0.00341789 60.7846 4.21121 68.2867 11.7133C75.7887 19.2154 80.0034 29.3904 80.0034 40C80.0034 50.6095 75.7887 60.7845 68.2867 68.2866C64.58 72.0118 60.1715 74.9651 55.3162 76.9756C50.4609 78.9862 45.2551 80.0141 40 80ZM40 2.55997C32.5953 2.56026 25.3569 4.75624 19.2002 8.87022C13.0435 12.9842 8.24496 18.8314 5.41134 25.6725C2.57772 32.5136 1.83629 40.0413 3.28079 47.3037C4.7253 54.5662 8.29088 61.2372 13.5267 66.4733C16.9937 69.9927 21.123 72.7912 25.6765 74.7074C30.2301 76.6237 35.1179 77.6197 40.0581 77.6383C44.9984 77.6568 49.8935 76.6974 54.4613 74.8154C59.0291 72.9334 63.1793 70.1659 66.6726 66.6726C70.1659 63.1793 72.9334 59.0291 74.8154 54.4613C76.6974 49.8935 77.6568 44.9984 77.6383 40.0581C77.6197 35.1178 76.6237 30.2301 74.7075 25.6765C72.7912 21.123 69.9928 16.9937 66.4733 13.5266C63.005 10.039 58.8793 7.27392 54.3352 5.39149C49.791 3.50906 44.9186 2.54665 40 2.55997Z" fill="#1265F5"/>
</g>
<defs>
<clipPath id="clip0">
<rect width="80" height="80" fill="white"/>
</clipPath>
</defs>
</svg>
