<svg xmlns="http://www.w3.org/2000/svg" xmlns:xlink="http://www.w3.org/1999/xlink" viewBox="0 0 58.22 75.21"><defs><style>.cls-1{fill:#fff;}.cls-2{clip-path:url(#clip-path);}.cls-3{clip-path:url(#clip-path-2);}.cls-4{clip-path:url(#clip-path-3);}.cls-5{clip-path:url(#clip-path-4);}.cls-6{clip-path:url(#clip-path-5);}.cls-7{clip-path:url(#clip-path-6);}</style><clipPath id="clip-path"><polygon class="cls-1" points="35.32 14.47 35.32 70.22 30.23 75.21 30.23 14.47 35.32 14.47"/></clipPath><clipPath id="clip-path-2"><polygon class="cls-1" points="52.27 12.9 52.27 10.36 5.57 10.36 5.57 12.9 0 6.11 58.21 6.11 52.27 12.9"/></clipPath><clipPath id="clip-path-3"><polygon class="cls-1" points="45.79 0 12.14 0 8.08 3.47 50.07 3.47 45.79 0"/></clipPath><clipPath id="clip-path-4"><polygon class="cls-1" points="27.93 14.47 27.93 75.1 22.83 69.91 22.83 14.47 27.93 14.47"/></clipPath><clipPath id="clip-path-5"><path class="cls-1" d="M38.81,30.48l-1.7-1.7V40L52.65,24.14v7.73L37.11,46.74v21.4L58.22,46.6V10ZM52.65,45,41.18,56.29V49.41L52.65,37.7Z"/></clipPath><clipPath id="clip-path-6"><path class="cls-1" d="M0,10V46.6L21.1,68.14V46.74L5.57,31.87V24.14L21.1,40V28.78l-1.69,1.7ZM5.57,37.7,17,49.41v6.88L5.57,45Z"/></clipPath></defs><g id="Слой_2" data-name="Слой 2"><g id="Слой_2-2" data-name="Слой 2"><polygon class="cls-1" points="35.32 14.47 35.32 70.22 30.23 75.21 30.23 14.47 35.32 14.47"/><polygon class="cls-1" points="52.27 12.9 52.27 10.36 5.57 10.36 5.57 12.9 0 6.11 58.21 6.11 52.27 12.9"/><polygon class="cls-1" points="45.79 0 12.14 0 8.08 3.47 50.07 3.47 45.79 0"/><polygon class="cls-1" points="27.93 14.47 27.93 75.1 22.83 69.91 22.83 14.47 27.93 14.47"/><path class="cls-1" d="M38.81,30.48l-1.7-1.7V40L52.65,24.14v7.73L37.11,46.74v21.4L58.22,46.6V10ZM52.65,45,41.18,56.29V49.41L52.65,37.7Z"/><path class="cls-1" d="M0,10V46.6L21.1,68.14V46.74L5.57,31.87V24.14L21.1,40V28.78l-1.69,1.7ZM5.57,37.7,17,49.41v6.88L5.57,45Z"/><polygon class="cls-1" points="35.32 14.47 35.32 70.22 30.23 75.21 30.23 14.47 35.32 14.47"/><polygon class="cls-1" points="52.27 12.9 52.27 10.36 5.57 10.36 5.57 12.9 0 6.11 58.21 6.11 52.27 12.9"/><polygon class="cls-1" points="45.79 0 12.14 0 8.08 3.47 50.07 3.47 45.79 0"/><polygon class="cls-1" points="27.93 14.47 27.93 75.1 22.83 69.91 22.83 14.47 27.93 14.47"/><path class="cls-1" d="M38.81,30.48l-1.7-1.7V40L52.65,24.14v7.73L37.11,46.74v21.4L58.22,46.6V10ZM52.65,45,41.18,56.29V49.41L52.65,37.7Z"/><path class="cls-1" d="M0,10V46.6L21.1,68.14V46.74L5.57,31.87V24.14L21.1,40V28.78l-1.69,1.7ZM5.57,37.7,17,49.41v6.88L5.57,45Z"/><polygon class="cls-1" points="35.32 14.47 35.32 70.22 30.23 75.21 30.23 14.47 35.32 14.47"/><polygon class="cls-1" points="52.27 12.9 52.27 10.36 5.57 10.36 5.57 12.9 0 6.11 58.21 6.11 52.27 12.9"/><polygon class="cls-1" points="45.79 0 12.14 0 8.08 3.47 50.07 3.47 45.79 0"/><polygon class="cls-1" points="27.93 14.47 27.93 75.1 22.83 69.91 22.83 14.47 27.93 14.47"/><path class="cls-1" d="M38.81,30.48l-1.7-1.7V40L52.65,24.14v7.73L37.11,46.74v21.4L58.22,46.6V10ZM52.65,45,41.18,56.29V49.41L52.65,37.7Z"/><path class="cls-1" d="M0,10V46.6L21.1,68.14V46.74L5.57,31.87V24.14L21.1,40V28.78l-1.69,1.7ZM5.57,37.7,17,49.41v6.88L5.57,45Z"/><polygon class="cls-1" points="35.32 14.47 35.32 70.22 30.23 75.21 30.23 14.47 35.32 14.47"/><polygon class="cls-1" points="52.27 12.9 52.27 10.36 5.57 10.36 5.57 12.9 0 6.11 58.21 6.11 52.27 12.9"/><polygon class="cls-1" points="45.79 0 12.14 0 8.08 3.47 50.07 3.47 45.79 0"/><polygon class="cls-1" points="27.93 14.47 27.93 75.1 22.83 69.91 22.83 14.47 27.93 14.47"/><path class="cls-1" d="M38.81,30.48l-1.7-1.7V40L52.65,24.14v7.73L37.11,46.74v21.4L58.22,46.6V10ZM52.65,45,41.18,56.29V49.41L52.65,37.7Z"/><path class="cls-1" d="M0,10V46.6L21.1,68.14V46.74L5.57,31.87V24.14L21.1,40V28.78l-1.69,1.7ZM5.57,37.7,17,49.41v6.88L5.57,45Z"/><polygon class="cls-1" points="35.32 14.47 35.32 70.22 30.23 75.21 30.23 14.47 35.32 14.47"/><g class="cls-2"><rect class="cls-1" x="30.23" y="14.47" width="5.1" height="60.74"/></g><polygon class="cls-1" points="52.27 12.9 52.27 10.36 5.57 10.36 5.57 12.9 0 6.11 58.21 6.11 52.27 12.9"/><g class="cls-3"><rect class="cls-1" y="6.11" width="58.21" height="6.79"/></g><polygon class="cls-1" points="45.79 0 12.14 0 8.08 3.47 50.07 3.47 45.79 0"/><g class="cls-4"><rect class="cls-1" x="8.08" width="41.99" height="3.47"/></g><polygon class="cls-1" points="27.93 14.47 27.93 75.1 22.83 69.91 22.83 14.47 27.93 14.47"/><g class="cls-5"><rect class="cls-1" x="22.83" y="14.47" width="5.09" height="60.63"/></g><path class="cls-1" d="M38.81,30.48l-1.7-1.7V40L52.65,24.14v7.73L37.11,46.74v21.4L58.22,46.6V10ZM52.65,45,41.18,56.29V49.41L52.65,37.7Z"/><g class="cls-6"><rect class="cls-1" x="37.11" y="10.04" width="21.11" height="58.1"/></g><path class="cls-1" d="M0,10V46.6L21.1,68.14V46.74L5.57,31.87V24.14L21.1,40V28.78l-1.69,1.7ZM5.57,37.7,17,49.41v6.88L5.57,45Z"/><g class="cls-7"><rect class="cls-1" y="10.04" width="21.1" height="58.1"/></g><line class="cls-1" x1="30.23" y1="14.47" x2="35.32" y2="14.47"/><polygon class="cls-1" points="35.32 14.47 35.32 70.22 30.23 75.21 30.23 14.47 35.32 14.47"/><polygon class="cls-1" points="52.27 12.9 52.27 10.36 5.57 10.36 5.57 12.9 0 6.11 58.21 6.11 52.27 12.9"/><polygon class="cls-1" points="45.79 0 12.14 0 8.08 3.47 50.07 3.47 45.79 0"/><polygon class="cls-1" points="27.93 14.47 27.93 75.1 22.83 69.91 22.83 14.47 27.93 14.47"/><path class="cls-1" d="M38.81,30.48l-1.7-1.7V40L52.65,24.14v7.73L37.11,46.74v21.4L58.22,46.6V10ZM52.65,45,41.18,56.29V49.41L52.65,37.7Z"/><path class="cls-1" d="M0,10V46.6L21.1,68.14V46.74L5.57,31.87V24.14L21.1,40V28.78l-1.69,1.7ZM5.57,37.7,17,49.41v6.88L5.57,45Z"/><polygon class="cls-1" points="35.32 14.47 35.32 70.22 30.23 75.21 30.23 14.47 35.32 14.47"/><polygon class="cls-1" points="52.27 12.9 52.27 10.36 5.57 10.36 5.57 12.9 0 6.11 58.21 6.11 52.27 12.9"/><polygon class="cls-1" points="45.79 0 12.14 0 8.08 3.47 50.07 3.47 45.79 0"/><polygon class="cls-1" points="27.93 14.47 27.93 75.1 22.83 69.91 22.83 14.47 27.93 14.47"/><path class="cls-1" d="M38.81,30.48l-1.7-1.7V40L52.65,24.14v7.73L37.11,46.74v21.4L58.22,46.6V10ZM52.65,45,41.18,56.29V49.41L52.65,37.7Z"/><path class="cls-1" d="M0,10V46.6L21.1,68.14V46.74L5.57,31.87V24.14L21.1,40V28.78l-1.69,1.7ZM5.57,37.7,17,49.41v6.88L5.57,45Z"/><polygon class="cls-1" points="35.32 14.47 35.32 70.22 30.23 75.21 30.23 14.47 35.32 14.47"/><polygon class="cls-1" points="52.27 12.9 52.27 10.36 5.57 10.36 5.57 12.9 0 6.11 58.21 6.11 52.27 12.9"/><polygon class="cls-1" points="45.79 0 12.14 0 8.08 3.47 50.07 3.47 45.79 0"/><polygon class="cls-1" points="27.93 14.47 27.93 75.1 22.83 69.91 22.83 14.47 27.93 14.47"/><path class="cls-1" d="M38.81,30.48l-1.7-1.7V40L52.65,24.14v7.73L37.11,46.74v21.4L58.22,46.6V10ZM52.65,45,41.18,56.29V49.41L52.65,37.7Z"/><path class="cls-1" d="M0,10V46.6L21.1,68.14V46.74L5.57,31.87V24.14L21.1,40V28.78l-1.69,1.7ZM5.57,37.7,17,49.41v6.88L5.57,45Z"/><polygon class="cls-1" points="35.32 14.47 35.32 70.22 30.23 75.21 30.23 14.47 35.32 14.47"/><polygon class="cls-1" points="52.27 12.9 52.27 10.36 5.57 10.36 5.57 12.9 0 6.11 58.21 6.11 52.27 12.9"/><polygon class="cls-1" points="45.79 0 12.14 0 8.08 3.47 50.07 3.47 45.79 0"/><polygon class="cls-1" points="27.93 14.47 27.93 75.1 22.83 69.91 22.83 14.47 27.93 14.47"/><path class="cls-1" d="M38.81,30.48l-1.7-1.7V40L52.65,24.14v7.73L37.11,46.74v21.4L58.22,46.6V10ZM52.65,45,41.18,56.29V49.41L52.65,37.7Z"/><path class="cls-1" d="M0,10V46.6L21.1,68.14V46.74L5.57,31.87V24.14L21.1,40V28.78l-1.69,1.7ZM5.57,37.7,17,49.41v6.88L5.57,45Z"/></g></g></svg>