<svg xmlns="http://www.w3.org/2000/svg" xmlns:xlink="http://www.w3.org/1999/xlink" viewBox="0 0 302 302"><defs><style>.cls-1{fill:#fff;}.cls-2{fill:#262626;}.cls-3{clip-path:url(#clip-path);}.cls-4{clip-path:url(#clip-path-2);}.cls-5{clip-path:url(#clip-path-3);}.cls-6{clip-path:url(#clip-path-4);}.cls-7{clip-path:url(#clip-path-5);}.cls-8{clip-path:url(#clip-path-6);}</style><clipPath id="clip-path"><polygon class="cls-1" points="170.76 77.42 170.76 254.73 154.55 270.62 154.55 77.42 170.76 77.42"/></clipPath><clipPath id="clip-path-2"><polygon class="cls-1" points="224.67 72.42 224.67 64.32 76.12 64.32 76.12 72.42 58.41 50.81 243.58 50.81 224.67 72.42"/></clipPath><clipPath id="clip-path-3"><polygon class="cls-1" points="204.06 31.38 97.02 31.38 84.11 42.41 217.68 42.41 204.06 31.38"/></clipPath><clipPath id="clip-path-4"><polygon class="cls-1" points="147.24 77.42 147.24 270.26 131.03 253.74 131.03 77.42 147.24 77.42"/></clipPath><clipPath id="clip-path-5"><path class="cls-1" d="M181.85,128.32l-5.4-5.39v35.66l49.43-50.41v24.58L176.45,180v68.08l67.14-68.51V63.31Zm44,46-36.49,36.06V188.53l36.49-37.23Z"/></clipPath><clipPath id="clip-path-6"><path class="cls-1" d="M58.41,63.31v116.3l67.13,68.51V180L76.11,132.76V108.18l49.43,50.41V122.93l-5.39,5.39Zm17.7,88,36.5,37.23v21.89l-36.5-36.06Z"/></clipPath></defs><g id="Слой_2" data-name="Слой 2"><g id="Слой_1-2" data-name="Слой 1"><rect class="cls-2" width="302" height="302" rx="36.64"/><polygon class="cls-1" points="170.76 77.42 170.76 254.73 154.55 270.62 154.55 77.42 170.76 77.42"/><polygon class="cls-1" points="224.67 72.42 224.67 64.32 76.12 64.32 76.12 72.42 58.41 50.81 243.58 50.81 224.67 72.42"/><polygon class="cls-1" points="204.06 31.38 97.02 31.38 84.11 42.41 217.68 42.41 204.06 31.38"/><polygon class="cls-1" points="147.24 77.42 147.24 270.26 131.03 253.74 131.03 77.42 147.24 77.42"/><path class="cls-1" d="M181.85,128.32l-5.4-5.39v35.66l49.43-50.41v24.58L176.45,180v68.08l67.14-68.51V63.31Zm44,46-36.49,36.06V188.53l36.49-37.23Z"/><path class="cls-1" d="M58.41,63.31v116.3l67.13,68.51V180L76.11,132.76V108.18l49.43,50.41V122.93l-5.39,5.39Zm17.7,88,36.5,37.23v21.89l-36.5-36.06Z"/><polygon class="cls-1" points="170.76 77.42 170.76 254.73 154.55 270.62 154.55 77.42 170.76 77.42"/><polygon class="cls-1" points="224.67 72.42 224.67 64.32 76.12 64.32 76.12 72.42 58.41 50.81 243.58 50.81 224.67 72.42"/><polygon class="cls-1" points="204.06 31.38 97.02 31.38 84.11 42.41 217.68 42.41 204.06 31.38"/><polygon class="cls-1" points="147.24 77.42 147.24 270.26 131.03 253.74 131.03 77.42 147.24 77.42"/><path class="cls-1" d="M181.85,128.32l-5.4-5.39v35.66l49.43-50.41v24.58L176.45,180v68.08l67.14-68.51V63.31Zm44,46-36.49,36.06V188.53l36.49-37.23Z"/><path class="cls-1" d="M58.41,63.31v116.3l67.13,68.51V180L76.11,132.76V108.18l49.43,50.41V122.93l-5.39,5.39Zm17.7,88,36.5,37.23v21.89l-36.5-36.06Z"/><polygon class="cls-1" points="170.76 77.42 170.76 254.73 154.55 270.62 154.55 77.42 170.76 77.42"/><polygon class="cls-1" points="224.67 72.42 224.67 64.32 76.12 64.32 76.12 72.42 58.41 50.81 243.58 50.81 224.67 72.42"/><polygon class="cls-1" points="204.06 31.38 97.02 31.38 84.11 42.41 217.68 42.41 204.06 31.38"/><polygon class="cls-1" points="147.24 77.42 147.24 270.26 131.03 253.74 131.03 77.42 147.24 77.42"/><path class="cls-1" d="M181.85,128.32l-5.4-5.39v35.66l49.43-50.41v24.58L176.45,180v68.08l67.14-68.51V63.31Zm44,46-36.49,36.06V188.53l36.49-37.23Z"/><path class="cls-1" d="M58.41,63.31v116.3l67.13,68.51V180L76.11,132.76V108.18l49.43,50.41V122.93l-5.39,5.39Zm17.7,88,36.5,37.23v21.89l-36.5-36.06Z"/><polygon class="cls-1" points="170.76 77.42 170.76 254.73 154.55 270.62 154.55 77.42 170.76 77.42"/><polygon class="cls-1" points="224.67 72.42 224.67 64.32 76.12 64.32 76.12 72.42 58.41 50.81 243.58 50.81 224.67 72.42"/><polygon class="cls-1" points="204.06 31.38 97.02 31.38 84.11 42.41 217.68 42.41 204.06 31.38"/><polygon class="cls-1" points="147.24 77.42 147.24 270.26 131.03 253.74 131.03 77.42 147.24 77.42"/><path class="cls-1" d="M181.85,128.32l-5.4-5.39v35.66l49.43-50.41v24.58L176.45,180v68.08l67.14-68.51V63.31Zm44,46-36.49,36.06V188.53l36.49-37.23Z"/><path class="cls-1" d="M58.41,63.31v116.3l67.13,68.51V180L76.11,132.76V108.18l49.43,50.41V122.93l-5.39,5.39Zm17.7,88,36.5,37.23v21.89l-36.5-36.06Z"/><polygon class="cls-1" points="170.76 77.42 170.76 254.73 154.55 270.62 154.55 77.42 170.76 77.42"/><g class="cls-3"><rect class="cls-1" x="154.55" y="77.42" width="16.21" height="193.2"/></g><polygon class="cls-1" points="224.67 72.42 224.67 64.32 76.12 64.32 76.12 72.42 58.41 50.81 243.58 50.81 224.67 72.42"/><g class="cls-4"><rect class="cls-1" x="58.41" y="50.81" width="185.16" height="21.61"/></g><polygon class="cls-1" points="204.06 31.38 97.02 31.38 84.11 42.41 217.68 42.41 204.06 31.38"/><g class="cls-5"><rect class="cls-1" x="84.11" y="31.38" width="133.57" height="11.03"/></g><polygon class="cls-1" points="147.24 77.42 147.24 270.26 131.03 253.74 131.03 77.42 147.24 77.42"/><g class="cls-6"><rect class="cls-1" x="131.03" y="77.42" width="16.2" height="192.85"/></g><path class="cls-1" d="M181.85,128.32l-5.4-5.39v35.66l49.43-50.41v24.58L176.45,180v68.08l67.14-68.51V63.31Zm44,46-36.49,36.06V188.53l36.49-37.23Z"/><g class="cls-7"><rect class="cls-1" x="176.45" y="63.31" width="67.13" height="184.81"/></g><path class="cls-1" d="M58.41,63.31v116.3l67.13,68.51V180L76.11,132.76V108.18l49.43,50.41V122.93l-5.39,5.39Zm17.7,88,36.5,37.23v21.89l-36.5-36.06Z"/><g class="cls-8"><rect class="cls-1" x="58.41" y="63.31" width="67.13" height="184.81"/></g><line class="cls-1" x1="154.55" y1="77.42" x2="170.76" y2="77.42"/><polygon class="cls-1" points="170.76 77.42 170.76 254.73 154.55 270.62 154.55 77.42 170.76 77.42"/><polygon class="cls-1" points="224.67 72.42 224.67 64.32 76.12 64.32 76.12 72.42 58.41 50.81 243.58 50.81 224.67 72.42"/><polygon class="cls-1" points="204.06 31.38 97.02 31.38 84.11 42.41 217.68 42.41 204.06 31.38"/><polygon class="cls-1" points="147.24 77.42 147.24 270.26 131.03 253.74 131.03 77.42 147.24 77.42"/><path class="cls-1" d="M181.85,128.32l-5.4-5.39v35.66l49.43-50.41v24.58L176.45,180v68.08l67.14-68.51V63.31Zm44,46-36.49,36.06V188.53l36.49-37.23Z"/><path class="cls-1" d="M58.41,63.31v116.3l67.13,68.51V180L76.11,132.76V108.18l49.43,50.41V122.93l-5.39,5.39Zm17.7,88,36.5,37.23v21.89l-36.5-36.06Z"/><polygon class="cls-1" points="170.76 77.42 170.76 254.73 154.55 270.62 154.55 77.42 170.76 77.42"/><polygon class="cls-1" points="224.67 72.42 224.67 64.32 76.12 64.32 76.12 72.42 58.41 50.81 243.58 50.81 224.67 72.42"/><polygon class="cls-1" points="204.06 31.38 97.02 31.38 84.11 42.41 217.68 42.41 204.06 31.38"/><polygon class="cls-1" points="147.24 77.42 147.24 270.26 131.03 253.74 131.03 77.42 147.24 77.42"/><path class="cls-1" d="M181.85,128.32l-5.4-5.39v35.66l49.43-50.41v24.58L176.45,180v68.08l67.14-68.51V63.31Zm44,46-36.49,36.06V188.53l36.49-37.23Z"/><path class="cls-1" d="M58.41,63.31v116.3l67.13,68.51V180L76.11,132.76V108.18l49.43,50.41V122.93l-5.39,5.39Zm17.7,88,36.5,37.23v21.89l-36.5-36.06Z"/><polygon class="cls-1" points="170.76 77.42 170.76 254.73 154.55 270.62 154.55 77.42 170.76 77.42"/><polygon class="cls-1" points="224.67 72.42 224.67 64.32 76.12 64.32 76.12 72.42 58.41 50.81 243.58 50.81 224.67 72.42"/><polygon class="cls-1" points="204.06 31.38 97.02 31.38 84.11 42.41 217.68 42.41 204.06 31.38"/><polygon class="cls-1" points="147.24 77.42 147.24 270.26 131.03 253.74 131.03 77.42 147.24 77.42"/><path class="cls-1" d="M181.85,128.32l-5.4-5.39v35.66l49.43-50.41v24.58L176.45,180v68.08l67.14-68.51V63.31Zm44,46-36.49,36.06V188.53l36.49-37.23Z"/><path class="cls-1" d="M58.41,63.31v116.3l67.13,68.51V180L76.11,132.76V108.18l49.43,50.41V122.93l-5.39,5.39Zm17.7,88,36.5,37.23v21.89l-36.5-36.06Z"/><polygon class="cls-1" points="170.76 77.42 170.76 254.73 154.55 270.62 154.55 77.42 170.76 77.42"/><polygon class="cls-1" points="224.67 72.42 224.67 64.32 76.12 64.32 76.12 72.42 58.41 50.81 243.58 50.81 224.67 72.42"/><polygon class="cls-1" points="204.06 31.38 97.02 31.38 84.11 42.41 217.68 42.41 204.06 31.38"/><polygon class="cls-1" points="147.24 77.42 147.24 270.26 131.03 253.74 131.03 77.42 147.24 77.42"/><path class="cls-1" d="M181.85,128.32l-5.4-5.39v35.66l49.43-50.41v24.58L176.45,180v68.08l67.14-68.51V63.31Zm44,46-36.49,36.06V188.53l36.49-37.23Z"/><path class="cls-1" d="M58.41,63.31v116.3l67.13,68.51V180L76.11,132.76V108.18l49.43,50.41V122.93l-5.39,5.39Zm17.7,88,36.5,37.23v21.89l-36.5-36.06Z"/></g></g></svg>