<?xml version="1.0" standalone="no"?>
<!DOCTYPE svg PUBLIC "-//W3C//DTD SVG 20010904//EN"
 "http://www.w3.org/TR/2001/REC-SVG-20010904/DTD/svg10.dtd">
<svg version="1.0" xmlns="http://www.w3.org/2000/svg"
 width="700.000000pt" height="700.000000pt" viewBox="0 0 700.000000 700.000000"
 preserveAspectRatio="xMidYMid meet">
<metadata>
Created by potrace 1.14, written by Peter Selinger 2001-2017
</metadata>
<g transform="translate(0.000000,700.000000) scale(0.100000,-0.100000)"
fill="#000000" stroke="none">
<path d="M691 6985 c-88 -20 -155 -43 -226 -77 -190 -95 -345 -271 -417 -478
-50 -141 -47 -6 -47 -2935 1 -2597 2 -2744 19 -2820 32 -145 79 -245 168 -357
104 -130 290 -255 423 -283 9 -2 34 -9 55 -17 32 -10 544 -13 2814 -15 l2775
-2 91 23 c293 73 513 274 610 560 13 38 27 90 31 115 5 25 8 1295 8 2821 l0
2775 -28 88 c-103 329 -356 553 -687 607 -31 5 -1231 9 -2790 9 -2291 -1
-2745 -3 -2799 -14z"/>
</g>
</svg>
