<svg width="210" height="50" viewBox="0 0 210 50" fill="none" xmlns="http://www.w3.org/2000/svg">
<path d="M62.8058 9.24679H58.2439V21.2728H57.3238V9.24679H52.762V8.40263H62.8058V9.24679Z" fill="black"/>
<path d="M79.4305 20.4286V21.2728H70.69V8.40263H79.1621V9.24679H71.6229V14.3247H78.3699V15.1559H71.6229V20.4286H79.4305Z" fill="black"/>
<path d="M98.2402 21.2727H97.3202V15.1429H88.8481V21.2597H87.9281V8.38961H88.8481V14.3117H97.3202V8.38961H98.2402V21.2727Z" fill="black"/>
<path d="M119.261 20.4286V24.2208H118.379V21.2728H106.802L106.789 24.2208H105.907L105.92 20.4286H106.61C107.441 20.3507 108.028 19.6494 108.361 18.2987C108.693 16.9481 108.897 15.065 108.961 12.6364L109.089 8.40263H117.318V20.4286H119.261ZM109.319 17.8182C109.076 19.1429 108.655 20.013 108.067 20.4286H116.386V9.24679H109.907L109.805 12.7013C109.728 14.7922 109.575 16.4935 109.319 17.8182Z" fill="black"/>
<path d="M136.371 20.4286V21.2728H127.643V8.40263H136.115V9.24679H128.576V14.3247H135.323V15.1559H128.576V20.4286H136.371Z" fill="black"/>
<path d="M153.162 9.54545C154.069 10.3117 154.516 11.3766 154.516 12.7403C154.516 14.0909 154.069 15.1429 153.162 15.9091C152.254 16.6753 151.015 17.0519 149.418 17.0519H145.801V21.2597H144.881V8.38961H149.418C151.015 8.40259 152.254 8.77922 153.162 9.54545ZM152.51 15.3117C153.226 14.7143 153.583 13.8571 153.583 12.7403C153.583 11.6234 153.226 10.7662 152.51 10.1558C151.794 9.54545 150.772 9.24675 149.418 9.24675H145.801V16.2208H149.418C150.772 16.2208 151.794 15.9091 152.51 15.3117Z" fill="black"/>
<path d="M173.211 21.2727H172.291V15.1429H163.819V21.2597H162.899V8.38961H163.819V14.3117H172.291V8.38961H173.211V21.2727Z" fill="black"/>
<path d="M191.203 17.6494H183.855L182.245 21.2728H181.249L187.076 8.40263H187.996L193.823 21.2728H192.826L191.203 17.6494ZM190.858 16.8572L187.536 9.4286L184.226 16.8572H190.858Z" fill="black"/>
<path d="M210 21.2727H209.08V17.2208H205.042C204.723 17.2208 204.429 17.2078 204.16 17.1688L201.362 21.2727H200.365L203.291 17.013C202.346 16.7403 201.63 16.2597 201.119 15.5455C200.608 14.8442 200.365 13.961 200.365 12.8831C200.365 11.4675 200.8 10.3636 201.681 9.57142C202.55 8.7922 203.739 8.38961 205.234 8.38961H210V21.2727ZM202.282 15.4935C202.934 16.1039 203.879 16.4156 205.144 16.4156H209.093V9.24675H205.31C204.033 9.24675 203.049 9.55844 202.359 10.1688C201.668 10.7922 201.323 11.6883 201.323 12.8571C201.298 14.013 201.63 14.8831 202.282 15.4935Z" fill="black"/>
<path d="M53.4265 32.2338H62.448V33.0649H54.3465V37.7013H58.6401C60.1223 37.7013 61.2468 38.013 62.0263 38.6234C62.793 39.2338 63.1892 40.1429 63.1892 41.3247C63.1892 42.5455 62.7803 43.4935 61.9624 44.1429C61.1446 44.7922 59.9562 45.1169 58.3973 45.1169H53.4393V32.2338H53.4265ZM58.3973 44.3117C59.6623 44.3117 60.6207 44.0649 61.2724 43.5714C61.9241 43.0779 62.2436 42.3377 62.2436 41.3507C62.2436 39.4286 60.9529 38.4675 58.3845 38.4675H54.3337V44.3117H58.3973Z" fill="black"/>
<path d="M71.9295 32.2338H72.8496V43.5195L81.475 32.2338H82.2928V45.1039H81.3728V33.8312L72.7473 45.1039H71.9295V32.2338Z" fill="black"/>
<path d="M100.566 33.3896C101.473 34.1559 101.92 35.2208 101.92 36.5844C101.92 37.9351 101.473 38.987 100.566 39.7533C99.6587 40.5195 98.4192 40.8961 96.8219 40.8961H93.2056V45.1039H92.2855V32.2338H96.8219C98.4192 32.2338 99.6587 32.6234 100.566 33.3896ZM99.9142 39.1559C100.63 38.5585 100.988 37.7013 100.988 36.5844C100.988 35.4675 100.63 34.6104 99.9142 34C99.1986 33.3896 98.1764 33.0909 96.8219 33.0909H93.2056V40.0649H96.8219C98.1764 40.052 99.2114 39.7533 99.9142 39.1559Z" fill="black"/>
<path d="M120.002 39H117.216V45.1039H116.309V39H113.523L109.345 45.1039H108.246L112.769 38.4805L108.591 32.2338H109.639L113.51 38.1559H116.309V32.2338H117.216V38.1559H120.002L123.886 32.2338H124.922L120.756 38.4805L125.279 45.1039H124.18L120.002 39Z" fill="black"/>
<path d="M140.933 41.4805H133.585L131.975 45.1039H130.978L136.805 32.2338H137.725L143.552 45.1039H142.556L140.933 41.4805ZM140.588 40.6883L137.265 33.2598L133.956 40.6883H140.588Z" fill="black"/>
<path d="M23.1034 9.62338V46.6883L19.7682 50V9.62338H23.1034Z" fill="black"/>
<path d="M34.195 8.58441V6.88311H3.64184V8.58441L0 4.06493H38.0796L34.195 8.58441Z" fill="black"/>
<path d="M29.9525 0H7.93536L5.27746 2.31169H32.751L29.9525 0Z" fill="black"/>
<path d="M18.2603 9.62338V49.9351L14.9379 46.4675V9.62338H18.2603Z" fill="black"/>
<path d="M25.3778 20.2597L24.2661 19.1298V26.5844L34.4249 16.0519V21.1948L24.2661 31.0779V45.3117L38.0668 30.987V6.6753L25.3778 20.2597ZM34.4377 29.8831L26.9368 37.4156V32.8441L34.4377 25.0649V29.8831Z" fill="black"/>
<path d="M0 6.6753V30.987L13.8007 45.3117V31.0779L3.64184 21.1948V16.0519L13.8007 26.5844V19.1298L12.6889 20.2597L0 6.6753ZM3.64184 25.0649L11.1428 32.8441V37.4156L3.64184 29.8831V25.0649Z" fill="black"/>
<path d="M23.1034 9.62338V46.6883L19.7682 50V9.62338H23.1034Z" fill="black"/>
<path d="M34.195 8.58441V6.88311H3.64184V8.58441L0 4.06493H38.0796L34.195 8.58441Z" fill="black"/>
<path d="M29.9525 0H7.93536L5.27746 2.31169H32.751L29.9525 0Z" fill="black"/>
<path d="M18.2603 9.62338V49.9351L14.9379 46.4675V9.62338H18.2603Z" fill="black"/>
<path d="M25.3778 20.2597L24.2661 19.1298V26.5844L34.4249 16.0519V21.1948L24.2661 31.0779V45.3117L38.0668 30.987V6.6753L25.3778 20.2597ZM34.4377 29.8831L26.9368 37.4156V32.8441L34.4377 25.0649V29.8831Z" fill="black"/>
<path d="M0 6.6753V30.987L13.8007 45.3117V31.0779L3.64184 21.1948V16.0519L13.8007 26.5844V19.1298L12.6889 20.2597L0 6.6753ZM3.64184 25.0649L11.1428 32.8441V37.4156L3.64184 29.8831V25.0649Z" fill="black"/>
<path d="M23.1034 9.62338V46.6883L19.7682 50V9.62338H23.1034Z" fill="black"/>
<path d="M34.195 8.58441V6.88311H3.64184V8.58441L0 4.06493H38.0796L34.195 8.58441Z" fill="black"/>
<path d="M29.9525 0H7.93536L5.27746 2.31169H32.751L29.9525 0Z" fill="black"/>
<path d="M18.2603 9.62338V49.9351L14.9379 46.4675V9.62338H18.2603Z" fill="black"/>
<path d="M25.3778 20.2597L24.2661 19.1298V26.5844L34.4249 16.0519V21.1948L24.2661 31.0779V45.3117L38.0668 30.987V6.6753L25.3778 20.2597ZM34.4377 29.8831L26.9368 37.4156V32.8441L34.4377 25.0649V29.8831Z" fill="black"/>
<path d="M0 6.6753V30.987L13.8007 45.3117V31.0779L3.64184 21.1948V16.0519L13.8007 26.5844V19.1298L12.6889 20.2597L0 6.6753ZM3.64184 25.0649L11.1428 32.8441V37.4156L3.64184 29.8831V25.0649Z" fill="black"/>
<path d="M23.1034 9.62338V46.6883L19.7682 50V9.62338H23.1034Z" fill="black"/>
<path d="M34.195 8.58441V6.88311H3.64184V8.58441L0 4.06493H38.0796L34.195 8.58441Z" fill="black"/>
<path d="M29.9525 0H7.93536L5.27746 2.31169H32.751L29.9525 0Z" fill="black"/>
<path d="M18.2603 9.62338V49.9351L14.9379 46.4675V9.62338H18.2603Z" fill="black"/>
<path d="M25.3778 20.2597L24.2661 19.1298V26.5844L34.4249 16.0519V21.1948L24.2661 31.0779V45.3117L38.0668 30.987V6.6753L25.3778 20.2597ZM34.4377 29.8831L26.9368 37.4156V32.8441L34.4377 25.0649V29.8831Z" fill="black"/>
<path d="M0 6.6753V30.987L13.8007 45.3117V31.0779L3.64184 21.1948V16.0519L13.8007 26.5844V19.1298L12.6889 20.2597L0 6.6753ZM3.64184 25.0649L11.1428 32.8441V37.4156L3.64184 29.8831V25.0649Z" fill="black"/>
<path d="M23.1034 9.62338V46.6883L19.7682 50V9.62338H23.1034Z" fill="black"/>
<path d="M34.195 8.58441V6.88311H3.64184V8.58441L0 4.06493H38.0796L34.195 8.58441Z" fill="black"/>
<path d="M29.9525 0H7.93536L5.27746 2.31169H32.751L29.9525 0Z" fill="black"/>
<path d="M18.2603 9.62338V49.9351L14.9379 46.4675V9.62338H18.2603Z" fill="black"/>
<path d="M25.3778 20.2597L24.2661 19.1298V26.5844L34.4249 16.0519V21.1948L24.2661 31.0779V45.3117L38.0668 30.987V6.6753L25.3778 20.2597ZM34.4377 29.8831L26.9368 37.4156V32.8441L34.4377 25.0649V29.8831Z" fill="black"/>
<path d="M0 6.6753V30.987L13.8007 45.3117V31.0779L3.64184 21.1948V16.0519L13.8007 26.5844V19.1298L12.6889 20.2597L0 6.6753ZM3.64184 25.0649L11.1428 32.8441V37.4156L3.64184 29.8831V25.0649Z" fill="black"/>
<path d="M23.1034 9.62338V46.6883L19.7682 50V9.62338H23.1034Z" fill="black"/>
<path d="M34.195 8.58441V6.88311H3.64184V8.58441L0 4.06493H38.0796L34.195 8.58441Z" fill="black"/>
<path d="M29.9525 0H7.93536L5.27746 2.31169H32.751L29.9525 0Z" fill="black"/>
<path d="M18.2603 9.62338V49.9351L14.9379 46.4675V9.62338H18.2603Z" fill="black"/>
<path d="M25.3778 20.2597L24.2661 19.1298V26.5844L34.4249 16.0519V21.1948L24.2661 31.0779V45.3117L38.0668 30.987V6.6753L25.3778 20.2597ZM34.4377 29.8831L26.9368 37.4156V32.8441L34.4377 25.0649V29.8831Z" fill="black"/>
<path d="M0 6.6753V30.987L13.8007 45.3117V31.0779L3.64184 21.1948V16.0519L13.8007 26.5844V19.1298L12.6889 20.2597L0 6.6753ZM3.64184 25.0649L11.1428 32.8441V37.4156L3.64184 29.8831V25.0649Z" fill="black"/>
</svg>
