<svg xmlns="http://www.w3.org/2000/svg" viewBox="0 0 216.98 54.28"><defs><style>.cls-1{fill:#fff;}.cls-2{fill:#5cb803;}</style></defs><g id="Слой_2" data-name="Слой 2"><g id="Слой_1-2" data-name="Слой 1"><path class="cls-1" d="M73.88,5.14v3H59.82v-3Zm-5.15,0V22.22H65V5.14Z"/><path class="cls-1" d="M81.53,5.07H84.3c.94,0,1.87,0,2.78.06s1.77.09,2.56.17l-.17,2.75H82.91a1.26,1.26,0,0,0-.93.32,1.35,1.35,0,0,0-.31.94V18A1.31,1.31,0,0,0,82,19a1.23,1.23,0,0,0,.93.33h6.56L89.64,22c-.79.07-1.64.12-2.56.16s-1.84.07-2.78.08H81.53a3.7,3.7,0,0,1-2.64-.95,3.28,3.28,0,0,1-1-2.49V8.51a3.25,3.25,0,0,1,1-2.5A3.69,3.69,0,0,1,81.53,5.07ZM78.31,12H88.53v2.68H78.31Z"/><path class="cls-1" d="M98.15,5.14V22.22H94.37V5.14Zm6.34,6.56v2.84H98V11.7ZM108,5.14V22.22h-3.78V5.14Z"/><path class="cls-1" d="M129.48,19.57v2.65H112.16V19.57ZM115.18,22l-.3,3.91h-2.72V22Zm12.08-16.9V22.22h-3.79V7.79h-2.25a1.46,1.46,0,0,0-1.07.34,1.72,1.72,0,0,0-.39,1.12c-.1,1.24-.22,2.36-.35,3.36s-.29,1.94-.48,2.79a19.9,19.9,0,0,1-.69,2.4,18.69,18.69,0,0,1-1,2.2,24.73,24.73,0,0,1-1.34,2.22h-3.19a23.39,23.39,0,0,0,1.88-4.4,33.78,33.78,0,0,0,1.07-4.55c.24-1.54.42-3.09.54-4.64a3.77,3.77,0,0,1,1.15-2.53,3.8,3.8,0,0,1,2.71-1ZM129.48,22V26h-2.69l-.3-3.91Z"/><path class="cls-1" d="M137.25,5.07H140q1.41,0,2.79.06c.91,0,1.77.09,2.56.17l-.17,2.75h-6.56a1.25,1.25,0,0,0-.93.32,1.3,1.3,0,0,0-.31.94V18a1.27,1.27,0,0,0,.31.94,1.21,1.21,0,0,0,.93.33h6.56l.17,2.74c-.79.07-1.65.12-2.56.16s-1.85.07-2.79.08h-2.77a3.68,3.68,0,0,1-2.63-.95,3.29,3.29,0,0,1-1-2.49V8.51a3.25,3.25,0,0,1,1-2.5A3.67,3.67,0,0,1,137.25,5.07ZM134,12h10.21v2.68H134Z"/><path class="cls-1" d="M156.65,4.89a11.28,11.28,0,0,1,3.74.5,3.3,3.3,0,0,1,1.94,1.71,7.92,7.92,0,0,1,.58,3.39,8.36,8.36,0,0,1-.55,3.39,3.19,3.19,0,0,1-1.82,1.69,9.87,9.87,0,0,1-3.42.48c-.76,0-1.5,0-2.22-.1s-1.41-.14-2-.24-1.17-.21-1.61-.31a3.78,3.78,0,0,1-.92-.31l.08-1.88h6.13A4.67,4.67,0,0,0,158.1,13a1.39,1.39,0,0,0,.79-.82,4.53,4.53,0,0,0,.24-1.65,4.7,4.7,0,0,0-.24-1.69A1.47,1.47,0,0,0,158.1,8a4.25,4.25,0,0,0-1.55-.23l-3.91,0c-1.09,0-1.82,0-2.2.1l-.37-2.72c.69-.08,1.34-.14,2-.17s1.27-.06,2-.07Zm-2.79.25V22.22h-3.79V5.14Z"/><path class="cls-1" d="M171.2,5.14V22.22h-3.78V5.14Zm6.34,6.56v2.84H171V11.7Zm3.51-6.56V22.22h-3.78V5.14Z"/><path class="cls-1" d="M194.69,5.14a1.32,1.32,0,0,1,1.31,1L201,22.22h-3.86L193.6,9.67c-.07-.28-.14-.57-.2-.86s-.12-.56-.17-.82h-.67c-.05.26-.11.54-.16.82s-.13.58-.21.86L188.7,22.22h-3.89l5-16.09a1.29,1.29,0,0,1,.48-.72,1.35,1.35,0,0,1,.83-.27Zm2.62,9.73v2.84h-8.86V14.87Z"/><path class="cls-1" d="M210.57,4.89h2.58c.71,0,1.36,0,1.95.07s1.22.09,1.88.17l-.34,2.72c-.38-.05-1.1-.08-2.14-.1l-3.85,0a4,4,0,0,0-1.49.22,1.42,1.42,0,0,0-.78.76,4,4,0,0,0-.23,1.52,4.3,4.3,0,0,0,.21,1.46,1.46,1.46,0,0,0,.75.83,3.59,3.59,0,0,0,1.49.26h5.84l.07,2.79-1,0-1.15,0h-3.7a1.93,1.93,0,0,0-1.17.32,2.15,2.15,0,0,0-.64,1.17l-1.26,5.1h-4L205.08,17a3.23,3.23,0,0,1,.63-1.41,2.94,2.94,0,0,1,.94-.78,3.47,3.47,0,0,1,1-.34l0-.14a3.73,3.73,0,0,1-1.92-.73,3.21,3.21,0,0,1-1-1.5,6.3,6.3,0,0,1-.31-2.05A6.1,6.1,0,0,1,205,7a3.62,3.62,0,0,1,2-1.59A10.75,10.75,0,0,1,210.57,4.89Zm6.41.25V22.22H213.2V5.14Z"/><path class="cls-1" d="M72.89,33l-.3,2.82H65V50.05H61.16V33c1-.07,2-.11,3-.14l2.87,0c1,0,2,0,3,0S71.93,32.91,72.89,33Zm-5.27,7a11.88,11.88,0,0,1,3.76.47,3.36,3.36,0,0,1,2,1.58A6.61,6.61,0,0,1,74,45.1a7.73,7.73,0,0,1-.37,2.63,3.22,3.22,0,0,1-1.14,1.56,4.76,4.76,0,0,1-1.93.75,15.42,15.42,0,0,1-2.72.21H65.44c-.72,0-1.43,0-2.1-.06l-2.08-.13.37-2.67c.38,0,1.1,0,2.18,0s2.34,0,3.81,0a4.9,4.9,0,0,0,1.57-.2,1.25,1.25,0,0,0,.77-.75A4.47,4.47,0,0,0,70.17,45a4.67,4.67,0,0,0-.2-1.53,1.27,1.27,0,0,0-.76-.76,4.15,4.15,0,0,0-1.59-.24h-6V40Z"/><path class="cls-1" d="M92.69,33V50.05H89.07V39.91c0-.38,0-.77.05-1.15s.09-.77.15-1.15h-.15c-.13.39-.28.78-.44,1.15s-.34.74-.52,1.1L82.29,50.05H78.61V33h3.61v10q0,.57-.06,1.17c0,.41-.09.81-.14,1.23h.12c.15-.4.31-.79.49-1.17s.35-.74.55-1.08L89,33Z"/><path class="cls-1" d="M104.79,32.73a11.25,11.25,0,0,1,3.73.5,3.33,3.33,0,0,1,2,1.7,8.14,8.14,0,0,1,.58,3.39,8.28,8.28,0,0,1-.56,3.39,3.17,3.17,0,0,1-1.82,1.7,9.84,9.84,0,0,1-3.41.48c-.76,0-1.51,0-2.23-.1s-1.4-.15-2-.25-1.16-.2-1.61-.3a3.66,3.66,0,0,1-.91-.31l.07-1.88h6.14a4.6,4.6,0,0,0,1.54-.25A1.41,1.41,0,0,0,107,40a4.82,4.82,0,0,0,.23-1.66,4.94,4.94,0,0,0-.23-1.68,1.48,1.48,0,0,0-.8-.83,4.2,4.2,0,0,0-1.54-.23l-3.91,0c-1.09,0-1.82,0-2.21.1L98.2,33c.7-.08,1.35-.14,2-.17s1.27-.06,2-.07ZM102,33V50.05H98.2V33Z"/><path class="cls-1" d="M118.55,33c.37,1.2.71,2.24,1,3.1a15.9,15.9,0,0,0,.85,2.13,3.52,3.52,0,0,0,.95,1.24,2.06,2.06,0,0,0,1.28.41v2.62a2.27,2.27,0,0,0-1.33.37,3.33,3.33,0,0,0-1,1.23,18.18,18.18,0,0,0-.93,2.31c-.33,1-.73,2.2-1.21,3.66h-4c.4-1.28.74-2.4,1-3.35a24.5,24.5,0,0,1,.88-2.42,6.75,6.75,0,0,1,1-1.64,3.57,3.57,0,0,1,1.21-1,5.18,5.18,0,0,1,1.71-.46v-.15a5.07,5.07,0,0,1-1.63-.46,3.16,3.16,0,0,1-1.14-1,7.19,7.19,0,0,1-.86-1.55c-.25-.61-.51-1.35-.77-2.19s-.57-1.82-.92-2.94Zm5.88,6.88v2.62h-2.52V39.86ZM127.21,33V37.8a11.52,11.52,0,0,1-.13,1.67,7.66,7.66,0,0,1-.42,1.63c.15.51.28,1,.39,1.57a8.14,8.14,0,0,1,.16,1.49v5.89h-3.62V44.16a6.79,6.79,0,0,1,.18-1.49c.11-.54.24-1.06.37-1.57a10,10,0,0,1-.41-1.63,10.26,10.26,0,0,1-.14-1.67V33Zm1.65,6.88v2.62h-2.47V39.86ZM136,33c-.35,1.12-.65,2.1-.91,2.94s-.53,1.58-.78,2.19a6.79,6.79,0,0,1-.87,1.55,3.37,3.37,0,0,1-1.15,1,5.15,5.15,0,0,1-1.63.46v.15a5.39,5.39,0,0,1,1.72.46,3.51,3.51,0,0,1,1.22,1,6.75,6.75,0,0,1,1,1.64,24.5,24.5,0,0,1,.88,2.42c.3.95.64,2.07,1,3.35h-4c-.48-1.46-.88-2.69-1.21-3.66a18.18,18.18,0,0,0-.93-2.31,3.33,3.33,0,0,0-1-1.23,2.27,2.27,0,0,0-1.33-.37l0-2.62a2,2,0,0,0,1.28-.41,3.51,3.51,0,0,0,.94-1.24,15.66,15.66,0,0,0,.87-2.13c.3-.86.64-1.9,1-3.1Z"/><path class="cls-1" d="M148.83,33a1.33,1.33,0,0,1,.83.27,1.29,1.29,0,0,1,.48.72l5,16.08h-3.86l-3.49-12.54c-.06-.28-.13-.57-.19-.86s-.13-.56-.18-.83h-.66c-.05.27-.11.54-.17.83a6.34,6.34,0,0,1-.21.86l-3.49,12.54H139l5-16.08a1.36,1.36,0,0,1,.49-.72,1.31,1.31,0,0,1,.83-.27Zm2.63,9.72v2.85H142.6V42.7Z"/><path class="cls-2" d="M0,7.4A6.1,6.1,0,0,1,.75,8Q7.1,14.62,13.41,21.3A7.91,7.91,0,0,1,14,22l1.35-1.16v7.78L4.16,18c0,1.58,0,3.24,0,4.89,0,.23.32.47.52.67C8,26.69,11.26,29.85,14.56,33a2.38,2.38,0,0,1,.82,1.94c0,4.35,0,8.7,0,13.05v1.32c-.7-.69-1.22-1.19-1.72-1.7L0,33.7ZM4.14,27.9c0,1.13,0,2.48,0,3.83A2.06,2.06,0,0,0,4.71,33c1.84,1.88,3.72,3.72,5.59,5.56.61.6,1.24,1.17,2,1.9,0-1.61,0-3,0-4.38a.93.93,0,0,0-.25-.6C9.42,32.92,6.77,30.4,4.14,27.9Z"/><path class="cls-2" d="M33.11,0l3,2.56H6L8.77,0Z"/><path class="cls-2" d="M26.83,49.19c0-.49-.06-.77-.06-1,0-4.51,0-9,0-13.54a2.33,2.33,0,0,1,.67-1.48c3.37-3.28,6.79-6.51,10.18-9.77A1.09,1.09,0,0,0,38,22.7c0-1.61,0-3.22,0-5.1L26.83,29v-8.1L28.07,22l14-14.7v1.2c0,8.11,0,16.23,0,24.35a2.05,2.05,0,0,1-.4,1.3C36.92,39,32.16,43.8,27.41,48.64,27.28,48.78,27.13,48.9,26.83,49.19Zm3-9,.44.32,7.46-7.82c.1-.11.27-.25.27-.38,0-1.59,0-3.18,0-4.36-2.53,2.39-5.21,4.9-7.86,7.43a1,1,0,0,0-.31.66C29.78,37.46,29.79,38.85,29.79,40.23Z"/><path class="cls-2" d="M21.88,54V10.6h3.61c0,.31.05.65.05,1q0,19.14,0,38.27a1.89,1.89,0,0,1-.65,1.51c-.94.93-1.81,1.93-2.71,2.91Z"/><path class="cls-2" d="M20.19,54.2C19,53,17.87,51.88,16.8,50.76a1.23,1.23,0,0,1-.25-.78q0-19.51,0-39c0-.1,0-.19.06-.35h3.59Z"/><path class="cls-2" d="M4.19,7.64,4.07,9.43l-4-4.88h42L37.81,9.41l-.13-1.77Z"/></g></g></svg>