<svg width="80" height="80" viewBox="0 0 80 80" fill="none" xmlns="http://www.w3.org/2000/svg">
<path d="M40.0156 0H40C17.9375 0 0 17.9375 0 40C0 48.75 2.8125 56.8594 7.60938 63.4375L2.625 78.2969L18 73.375C24.3281 77.5781 31.875 80 40.0156 80C62.0625 80 80 62.0625 80 40C80 17.9375 62.0625 0 40.0156 0Z" fill="#A7F271"/>
<path d="M63.2812 56.4844C62.3125 59.2031 58.4844 61.4688 55.4375 62.125C53.3438 62.5625 50.625 62.9219 41.4219 59.1094C29.6719 54.2344 22.0938 42.2969 21.5 41.5156C20.9375 40.7344 16.75 35.1875 16.75 29.4531C16.75 23.7188 19.6719 20.9219 20.8437 19.7187C21.8125 18.7344 23.4063 18.2812 24.9375 18.2812C25.4375 18.2812 25.875 18.3125 26.2812 18.3281C27.4531 18.375 28.0469 18.4531 28.8281 20.2969C29.7969 22.625 32.1406 28.3594 32.4219 28.9531C32.7031 29.5469 32.9844 30.3438 32.5938 31.125C32.2188 31.9219 31.8906 32.2812 31.2969 32.9531C30.7031 33.625 30.1406 34.1563 29.5625 34.8906C29.0156 35.5312 28.4062 36.2031 29.0938 37.375C29.7812 38.5312 32.125 42.3594 35.5781 45.4375C40.0469 49.4062 43.6563 50.6875 44.9531 51.2188C45.9219 51.625 47.0625 51.5312 47.7656 50.7812C48.6563 49.8125 49.7656 48.2188 50.8906 46.6406C51.6875 45.5156 52.7031 45.375 53.7656 45.7656C54.8438 46.1406 60.5625 48.9688 61.7344 49.5469C62.9063 50.1406 63.6875 50.4219 63.9688 50.9062C64.25 51.4375 64.25 53.75 63.2812 56.4844Z" fill="white"/>
</svg>
